<?xml version="1.0" encoding="utf-8"?>
<!-- Generator: Adobe Illustrator 16.0.3, SVG Export Plug-In . SVG Version: 6.00 Build 0)  -->
<!DOCTYPE svg PUBLIC "-//W3C//DTD SVG 1.1//EN" "http://www.w3.org/Graphics/SVG/1.1/DTD/svg11.dtd">
<svg version="1.1" xmlns="http://www.w3.org/2000/svg" xmlns:xlink="http://www.w3.org/1999/xlink" x="0px" y="0px"
	 width="129.776px" height="105.073px" viewBox="0.652 0 129.776 105.073" enable-background="new 0.652 0 129.776 105.073"
	 xml:space="preserve">
<g id="Layer_1">
	<g>
		<polygon fill="#685334" points="11.597,22.695 15.506,17.691 14.958,11.358 11.05,16.362 		"/>
		<path fill="#685334" d="M7.063,29.966l1.72-5.629l-2.659-3.44c-0.782,1.72-1.407,3.44-2.032,5.238L7.063,29.966z"/>
		<path fill="#685334" d="M13.317,25.744l-1.72,5.628l3.752-1.328c0.469-1.955,1.173-3.831,1.877-5.708L13.317,25.744z"/>
		<path fill="#685334" d="M4.639,42.005l0.782-5.785l-3.284-3.127c-0.391,1.798-0.704,3.753-0.938,5.708L4.639,42.005z"/>
		<path fill="#685334" d="M10.111,36.767L9.33,42.552l4.3-2.345c0.157-1.955,0.391-3.909,0.704-5.785L10.111,36.767z"/>
		<path fill="#685334" d="M4.795,47.321L0.73,44.506c0,0.782-0.078,1.486-0.078,2.189c0,1.173,0.078,2.502,0.157,3.675l4.065,2.814
			L4.795,47.321z"/>
		<path fill="#685334" d="M9.643,47.243l0.078,5.863l4.3-3.127c-0.234-1.798-0.391-3.752-0.391-5.629L9.643,47.243z"/>
		<path fill="#685334" d="M7.375,64.364l-1.173-5.785l-4.769-2.111c0.313,1.955,0.704,3.831,1.173,5.786L7.375,64.364z"/>
		<path fill="#685334" d="M10.815,57.641l1.173,5.785l3.831-4.222c-0.547-1.798-1.016-3.674-1.407-5.551L10.815,57.641z"/>
		<path fill="#685334" d="M12.3,74.684l-2.423-5.395l-5.473-1.173c0.625,1.798,1.329,3.597,2.111,5.316L12.3,74.684z"/>
		<path fill="#685334" d="M14.255,67.413l2.423,5.395l2.814-4.925c-0.86-1.72-1.72-3.439-2.423-5.316L14.255,67.413z"/>
		<path fill="#685334" d="M19.18,84.221l-3.362-4.769l-6.254-0.156c0.938,1.642,2.033,3.284,3.127,4.769L19.18,84.221z"/>
		<path fill="#685334" d="M19.727,76.716l3.362,4.769l1.876-5.316c-1.172-1.485-2.345-3.127-3.44-4.769L19.727,76.716z"/>
		<path fill="#685334" d="M21.291,94.072l6.801-1.408l-4.299-3.986l-6.489,1.329C18.633,91.414,19.962,92.743,21.291,94.072z"/>
		<path fill="#685334" d="M27.78,79.452l-0.704,5.785l4.3,3.987l0.704-5.629C30.516,82.188,29.187,80.859,27.78,79.452z"/>
		<path fill="#685334" d="M34.112,96.73l-5.707,3.049c1.172,0.86,2.267,1.563,3.44,2.267l1.251,0.625l6.254-3.361L34.112,96.73z"/>
		<path fill="#685334" d="M36.145,92.43l5.316,2.58l-1.016-5.785c-1.876-1.017-3.675-2.189-5.473-3.44L36.145,92.43z"/>
		<polygon fill="#685334" points="120.108,16.362 116.2,11.358 115.652,17.691 119.483,22.695 		"/>
		<path fill="#685334" d="M122.454,24.336l1.72,5.629l2.971-3.831c-0.547-1.798-1.251-3.518-2.033-5.238L122.454,24.336z"/>
		<path fill="#685334" d="M119.483,31.372l-1.719-5.628l-4.066-1.407c0.782,1.798,1.407,3.752,1.876,5.708L119.483,31.372z"/>
		<path fill="#685334" d="M129.881,38.721c-0.234-1.876-0.547-3.752-0.938-5.707l-3.284,3.127l0.782,5.785L129.881,38.721z"/>
		<path fill="#685334" d="M121.75,42.63l-0.782-5.785l-4.222-2.267c0.313,1.876,0.547,3.83,0.704,5.785L121.75,42.63z"/>
		<path fill="#685334" d="M126.207,53.185l4.065-2.814c0.079-1.173,0.157-2.424,0.157-3.675c0-0.782,0-1.485-0.078-2.189
			l-4.065,2.814L126.207,53.185z"/>
		<path fill="#685334" d="M121.438,53.185l0.078-5.864l-3.987-2.892c0,1.876-0.156,3.752-0.391,5.629L121.438,53.185z"/>
		<path fill="#685334" d="M124.956,58.657l-1.172,5.786l4.769-2.111c0.469-1.876,0.859-3.752,1.172-5.785L124.956,58.657z"/>
		<path fill="#685334" d="M119.092,63.426l1.172-5.785l-3.674-3.909c-0.391,1.877-0.86,3.753-1.407,5.551L119.092,63.426z"/>
		<path fill="#685334" d="M121.203,69.367l-2.423,5.394l5.785-1.172c0.86-1.72,1.485-3.518,2.11-5.316L121.203,69.367z"/>
		<path fill="#685334" d="M114.479,72.807l2.424-5.395l-2.815-4.847c-0.703,1.798-1.485,3.597-2.423,5.316L114.479,72.807z"/>
		<path fill="#685334" d="M115.261,79.452l-3.361,4.769l6.489-0.156c1.173-1.563,2.111-3.127,3.127-4.769L115.261,79.452z"/>
		<path fill="#685334" d="M107.991,81.485l3.362-4.769l-1.798-5.238c-1.016,1.642-2.111,3.206-3.44,4.769L107.991,81.485z"/>
		<path fill="#685334" d="M113.854,90.006l-6.489-1.329l-4.3,3.986l6.802,1.408C111.196,92.743,112.525,91.414,113.854,90.006z"/>
		<path fill="#685334" d="M99,83.518l0.704,5.629l4.3-3.987l-0.704-5.785C101.971,80.859,100.564,82.188,99,83.518z"/>
		<path fill="#685334" d="M97.046,96.73l-5.316,2.58l6.254,3.361l1.25-0.625c1.173-0.704,2.345-1.485,3.44-2.267L97.046,96.73z"/>
		<path fill="#685334" d="M89.697,95.01l5.316-2.58l1.173-6.645c-1.72,1.25-3.518,2.423-5.472,3.44L89.697,95.01z"/>
	</g>
	
		<line opacity="0.75" fill="#565656" stroke="#685334" stroke-width="3" stroke-miterlimit="10" enable-background="new    " x1="24.731" y1="51.387" x2="106.818" y2="51.387"/>
	<g opacity="0.75">
		<path fill="none" stroke="#685334" stroke-linecap="round" stroke-miterlimit="10" d="M11.05,25.196
			c-2.502,6.411-3.831,13.291-3.831,20.561c0,25.017,16.339,46.282,39.011,53.474"/>
		<path fill="none" stroke="#685334" stroke-linecap="round" stroke-miterlimit="10" d="M120.108,25.196
			c2.502,6.411,3.831,13.291,3.831,20.561c0,25.017-16.339,46.282-39.011,53.474"/>
	</g>
	<g>
		<g>
			<g>
				<polygon fill="#685334" points="64.524,3.854 74.062,13.313 70.856,16.44 72.732,18.317 77.97,13.313 64.524,0.023 
					59.364,5.104 61.318,7.059 				"/>
				<polygon opacity="0.75" fill="#685334" enable-background="new    " points="70.856,5.104 72.732,7.059 76.016,3.854 
					85.554,13.313 76.016,22.617 66.479,13.313 69.684,10.03 67.729,8.153 64.524,11.358 53.11,0.023 39.741,13.313 53.11,26.525 
					58.27,21.365 56.315,19.489 53.11,22.617 43.572,13.313 53.11,3.854 62.647,13.313 59.364,16.44 61.318,18.317 64.524,15.189 
					76.016,26.525 89.384,13.313 76.016,0.023 				"/>
				<polygon fill="#685334" points="64.524,22.617 54.986,13.313 58.27,10.03 56.315,8.153 51.155,13.313 64.524,26.525 
					69.684,21.365 67.729,19.489 				"/>
			</g>
			<g>
				<path fill="#685334" d="M76.72,31.372h-1.876v2.033h-1.329v1.72h1.251v3.596c0,1.955,0.625,2.893,2.893,2.893h0.86V39.66h-0.704
					c-0.938,0-1.094-0.391-1.094-1.173v-3.44h2.032v-1.72H76.72V31.372z"/>
				<rect x="80.472" y="30.2" fill="#685334" width="2.033" height="1.876"/>
				<rect x="80.472" y="33.405" fill="#685334" width="2.033" height="8.209"/>
				<path fill="#685334" d="M88.681,36.689c-2.11-0.625-2.501-0.782-2.501-1.173c0-0.391,0.469-0.782,1.25-0.782
					c1.095,0,1.486,0.547,1.798,1.251l1.72-0.469c-0.391-1.407-1.486-2.424-3.44-2.424c-1.955,0-3.127,1.251-3.127,2.502
					c0,1.25,0.938,1.875,2.814,2.423c1.72,0.469,2.189,0.547,2.189,1.173c0,0.625-0.625,0.86-1.642,0.86
					c-1.095,0-1.72-0.625-1.798-1.72L84.146,38.8c0.156,1.407,1.251,2.971,3.753,2.971c2.345,0,3.361-1.407,3.361-2.58
					C91.104,38.096,90.714,37.314,88.681,36.689z"/>
				<path fill="#685334" d="M95.952,33.092c-2.111,0-3.753,1.72-3.753,4.378c0,2.658,1.642,4.378,3.909,4.378
					c1.72,0,2.736-0.86,3.44-1.798l-1.407-1.25c-0.391,0.547-0.938,1.25-2.033,1.25c-1.095,0-1.798-0.704-1.798-1.955h5.472V37.47
					C99.704,34.734,98.062,33.092,95.952,33.092z M94.153,36.532c0.078-0.86,0.782-1.72,1.798-1.72c1.094,0,1.72,0.625,1.798,1.72
					H94.153z"/>
				<polygon fill="#685334" points="32.783,41.614 39.584,41.614 39.584,39.66 34.816,39.66 34.816,37.001 39.194,37.001 
					39.194,35.047 34.816,35.047 34.816,32.702 39.584,32.702 39.584,30.747 32.783,30.747 				"/>
				<polygon fill="#685334" points="48.731,33.405 46.621,33.405 44.823,36.063 44.745,36.063 42.946,33.405 40.836,33.405 
					43.572,37.393 40.679,41.614 42.869,41.614 44.745,38.643 44.823,38.643 46.777,41.614 48.966,41.614 46.074,37.393 				"/>
				<path fill="#685334" d="M54.204,33.092c-1.642,0-2.189,1.017-2.189,1.017l0,0v-0.86h-1.876v11.727h2.033v-4.3l0,0
					c0,0,0.547,1.017,2.111,1.017c1.876,0,3.596-1.485,3.596-4.378C57.879,34.656,56.081,33.092,54.204,33.092z M53.892,39.973
					c-1.173,0-1.955-0.86-1.955-2.502c0-1.642,0.86-2.501,1.955-2.501c1.094,0,1.955,0.86,1.955,2.501
					C55.846,39.112,54.986,39.973,53.892,39.973z"/>
				<path fill="#685334" d="M62.726,33.092c-2.111,0-3.752,1.72-3.752,4.378c0,2.658,1.642,4.378,3.909,4.378
					c1.719,0,2.736-0.86,3.439-1.798l-1.407-1.25c-0.391,0.547-0.938,1.25-2.032,1.25c-1.095,0-1.798-0.704-1.798-1.955h5.472V37.47
					C66.4,34.734,64.758,33.092,62.726,33.092z M60.928,36.532c0.078-0.86,0.782-1.72,1.798-1.72c1.094,0,1.72,0.625,1.798,1.72
					H60.928z"/>
				<path fill="#685334" d="M71.403,33.171c-0.782,0-1.407,0.469-1.72,1.016l0,0v-0.86h-1.876v8.209h2.033V37.08
					c0-1.329,0.547-1.876,1.407-1.876c0.156,0,0.469,0.078,0.625,0.156l0.313-1.954C71.951,33.249,71.716,33.171,71.403,33.171z"/>
			</g>
		</g>
	</g>
	<g>
		<path fill="#685334" d="M28.62,65.846v-6.653h2.171c0.694,0,1.238,0.15,1.631,0.45c0.393,0.3,0.59,0.75,0.59,1.351
			c0,0.295-0.094,0.56-0.284,0.793c-0.188,0.232-0.437,0.406-0.745,0.518c0.402,0.085,0.718,0.282,0.948,0.59
			c0.23,0.308,0.345,0.666,0.345,1.074c0,0.609-0.198,1.074-0.592,1.396c-0.395,0.322-0.93,0.482-1.606,0.482H28.62z M29.521,62.021
			h1.458c0.335,0,0.608-0.093,0.818-0.277c0.21-0.184,0.315-0.441,0.315-0.77c0-0.359-0.113-0.628-0.34-0.807
			c-0.227-0.178-0.554-0.267-0.98-0.267h-1.271V62.021z M29.521,62.729v2.408h1.558c0.408,0,0.727-0.101,0.955-0.302
			c0.229-0.202,0.343-0.488,0.343-0.858c0-0.388-0.095-0.693-0.286-0.915s-0.483-0.332-0.879-0.332H29.521z"/>
		<path fill="#685334" d="M36.484,65.942c-0.688,0-1.236-0.229-1.643-0.688c-0.407-0.458-0.61-1.053-0.61-1.784v-0.201
			c0-0.704,0.209-1.29,0.628-1.757c0.419-0.468,0.915-0.702,1.488-0.702c0.667,0,1.171,0.201,1.512,0.604
			c0.341,0.402,0.512,0.938,0.512,1.608v0.563h-3.208l-0.014,0.022c0.009,0.474,0.129,0.864,0.361,1.169
			c0.232,0.306,0.556,0.458,0.974,0.458c0.304,0,0.572-0.043,0.802-0.13c0.23-0.086,0.429-0.206,0.597-0.358l0.352,0.585
			c-0.176,0.175-0.41,0.32-0.699,0.437C37.246,65.884,36.896,65.942,36.484,65.942z M36.348,61.519c-0.302,0-0.56,0.127-0.772,0.38
			c-0.213,0.253-0.345,0.571-0.393,0.954l0.009,0.023h2.281v-0.118c0-0.353-0.095-0.646-0.284-0.884
			C37,61.637,36.719,61.519,36.348,61.519z"/>
		<path fill="#685334" d="M42.256,64.529c0-0.198-0.076-0.361-0.227-0.488c-0.15-0.128-0.436-0.239-0.856-0.334
			c-0.601-0.131-1.052-0.308-1.355-0.531c-0.303-0.224-0.455-0.529-0.455-0.915c0-0.401,0.171-0.744,0.512-1.027
			c0.341-0.283,0.786-0.424,1.334-0.424c0.576,0,1.034,0.148,1.374,0.443c0.339,0.295,0.501,0.655,0.486,1.079l-0.009,0.027h-0.858
			c0-0.217-0.091-0.411-0.272-0.583c-0.182-0.172-0.421-0.258-0.72-0.258c-0.32,0-0.558,0.07-0.713,0.21s-0.233,0.31-0.233,0.507
			c0,0.195,0.068,0.349,0.206,0.461c0.138,0.113,0.416,0.214,0.836,0.302c0.624,0.134,1.089,0.316,1.394,0.546
			s0.457,0.539,0.457,0.925c0,0.439-0.178,0.793-0.532,1.065c-0.355,0.271-0.819,0.407-1.392,0.407c-0.631,0-1.127-0.16-1.489-0.48
			c-0.363-0.32-0.535-0.693-0.517-1.12l0.009-0.027h0.859c0.015,0.318,0.134,0.551,0.356,0.698c0.222,0.147,0.483,0.221,0.781,0.221
			c0.32,0,0.57-0.065,0.752-0.194C42.165,64.91,42.256,64.74,42.256,64.529z"/>
		<path fill="#685334" d="M45.463,59.709v1.192H46.4v0.667h-0.937v3.002c0,0.231,0.048,0.395,0.144,0.489
			c0.096,0.094,0.224,0.142,0.382,0.142c0.052,0,0.109-0.006,0.171-0.019c0.062-0.012,0.118-0.027,0.167-0.046l0.119,0.617
			c-0.067,0.055-0.166,0.1-0.295,0.135c-0.129,0.035-0.259,0.053-0.391,0.053c-0.365,0-0.656-0.111-0.873-0.332
			s-0.324-0.567-0.324-1.04v-3.002h-0.786v-0.667h0.786v-1.192H45.463z"/>
		<path fill="#685334" d="M50.906,65.137h3.148v0.708h-4.048v-6.653h0.9V65.137z"/>
		<path fill="#685334" d="M57.929,65.846c-0.031-0.149-0.055-0.281-0.071-0.395c-0.017-0.114-0.026-0.229-0.029-0.345
			c-0.168,0.237-0.386,0.437-0.656,0.596c-0.27,0.16-0.56,0.24-0.87,0.24c-0.515,0-0.907-0.132-1.177-0.396
			c-0.27-0.264-0.404-0.626-0.404-1.09c0-0.472,0.191-0.841,0.573-1.108s0.901-0.4,1.556-0.4h0.978v-0.489
			c0-0.289-0.089-0.518-0.265-0.688c-0.177-0.169-0.427-0.253-0.75-0.253c-0.29,0-0.525,0.074-0.706,0.222s-0.272,0.325-0.272,0.532
			h-0.859l-0.009-0.027c-0.018-0.359,0.152-0.688,0.509-0.987c0.358-0.298,0.821-0.448,1.387-0.448c0.561,0,1.011,0.143,1.353,0.427
			c0.341,0.285,0.512,0.695,0.512,1.232v2.38c0,0.177,0.009,0.348,0.027,0.512c0.019,0.165,0.052,0.326,0.101,0.484H57.929z
			 M56.435,65.183c0.325,0,0.62-0.083,0.882-0.25c0.261-0.167,0.432-0.358,0.512-0.574v-0.802h-1.01
			c-0.362,0-0.653,0.091-0.87,0.273c-0.218,0.182-0.327,0.396-0.327,0.642c0,0.219,0.068,0.392,0.206,0.52
			C55.964,65.12,56.167,65.183,56.435,65.183z"/>
		<path fill="#685334" d="M60.839,60.901l0.064,0.736c0.165-0.262,0.371-0.465,0.62-0.61c0.248-0.145,0.531-0.217,0.847-0.217
			c0.534,0,0.946,0.156,1.238,0.469c0.293,0.312,0.439,0.794,0.439,1.446v3.121h-0.9v-3.103c0-0.436-0.086-0.745-0.258-0.928
			c-0.172-0.183-0.435-0.274-0.788-0.274c-0.259,0-0.489,0.063-0.688,0.188s-0.359,0.295-0.478,0.512v3.605h-0.9v-4.944H60.839z"/>
		<path fill="#685334" d="M65.148,63.465c0-0.795,0.17-1.437,0.51-1.924c0.34-0.487,0.815-0.731,1.428-0.731
			c0.29,0,0.546,0.054,0.77,0.16c0.224,0.106,0.415,0.262,0.574,0.466v-2.718h0.9v7.128h-0.736l-0.105-0.608
			c-0.162,0.232-0.359,0.407-0.594,0.525c-0.235,0.119-0.507,0.179-0.818,0.179c-0.604,0-1.076-0.219-1.417-0.656
			c-0.341-0.438-0.512-1.012-0.512-1.725V63.465z M66.049,63.561c0,0.5,0.102,0.899,0.306,1.199c0.204,0.3,0.521,0.451,0.95,0.451
			c0.268,0,0.494-0.062,0.676-0.183c0.183-0.122,0.332-0.292,0.448-0.512v-2.308c-0.116-0.204-0.266-0.366-0.45-0.487
			c-0.185-0.12-0.406-0.181-0.665-0.181c-0.433,0-0.751,0.179-0.958,0.535c-0.206,0.356-0.308,0.819-0.308,1.389V63.561z"/>
		<path fill="#685334" d="M73.547,64.529c0-0.198-0.075-0.361-0.226-0.488c-0.15-0.128-0.436-0.239-0.856-0.334
			c-0.6-0.131-1.052-0.308-1.355-0.531s-0.455-0.529-0.455-0.915c0-0.401,0.17-0.744,0.512-1.027s0.786-0.424,1.334-0.424
			c0.576,0,1.033,0.148,1.373,0.443s0.502,0.655,0.486,1.079l-0.009,0.027h-0.859c0-0.217-0.091-0.411-0.271-0.583
			c-0.181-0.172-0.421-0.258-0.72-0.258c-0.32,0-0.558,0.07-0.713,0.21c-0.156,0.14-0.233,0.31-0.233,0.507
			c0,0.195,0.068,0.349,0.206,0.461c0.137,0.113,0.416,0.214,0.836,0.302c0.625,0.134,1.089,0.316,1.394,0.546
			c0.305,0.23,0.457,0.539,0.457,0.925c0,0.439-0.177,0.793-0.532,1.065c-0.355,0.271-0.819,0.407-1.392,0.407
			c-0.63,0-1.127-0.16-1.49-0.48c-0.362-0.32-0.534-0.693-0.516-1.12l0.009-0.027h0.859c0.015,0.318,0.134,0.551,0.356,0.698
			c0.223,0.147,0.483,0.221,0.781,0.221c0.32,0,0.571-0.065,0.752-0.194S73.547,64.74,73.547,64.529z"/>
		<path fill="#685334" d="M77.578,65.233c0.298,0,0.561-0.092,0.788-0.276c0.227-0.185,0.34-0.411,0.34-0.679h0.809l0.009,0.027
			c0.015,0.427-0.174,0.806-0.569,1.138c-0.395,0.332-0.854,0.499-1.377,0.499c-0.719,0-1.269-0.235-1.649-0.704
			c-0.381-0.469-0.571-1.058-0.571-1.768v-0.192c0-0.704,0.191-1.291,0.573-1.762s0.932-0.706,1.647-0.706
			c0.579,0,1.052,0.17,1.418,0.512c0.367,0.341,0.544,0.76,0.533,1.257l-0.009,0.027h-0.813c0-0.302-0.106-0.558-0.32-0.77
			c-0.213-0.211-0.483-0.317-0.809-0.317c-0.472,0-0.81,0.17-1.012,0.509c-0.203,0.339-0.304,0.755-0.304,1.248v0.192
			c0,0.505,0.101,0.925,0.302,1.262C76.764,65.065,77.103,65.233,77.578,65.233z"/>
		<path fill="#685334" d="M83.572,65.846c-0.03-0.149-0.054-0.281-0.07-0.395c-0.017-0.114-0.027-0.229-0.03-0.345
			c-0.167,0.237-0.386,0.437-0.656,0.596c-0.27,0.16-0.56,0.24-0.871,0.24c-0.515,0-0.907-0.132-1.177-0.396
			c-0.27-0.264-0.404-0.626-0.404-1.09c0-0.472,0.191-0.841,0.574-1.108c0.382-0.267,0.901-0.4,1.556-0.4h0.978v-0.489
			c0-0.289-0.088-0.518-0.265-0.688c-0.176-0.169-0.427-0.253-0.75-0.253c-0.29,0-0.525,0.074-0.706,0.222
			c-0.181,0.148-0.272,0.325-0.272,0.532h-0.859l-0.009-0.027c-0.019-0.359,0.151-0.688,0.509-0.987
			c0.358-0.298,0.82-0.448,1.387-0.448c0.561,0,1.011,0.143,1.353,0.427c0.341,0.285,0.512,0.695,0.512,1.232v2.38
			c0,0.177,0.009,0.348,0.028,0.512c0.018,0.165,0.051,0.326,0.101,0.484H83.572z M82.078,65.183c0.327,0,0.62-0.083,0.882-0.25
			c0.262-0.167,0.432-0.358,0.512-0.574v-0.802h-1.01c-0.363,0-0.653,0.091-0.871,0.273c-0.218,0.182-0.327,0.396-0.327,0.642
			c0,0.219,0.068,0.392,0.206,0.52C81.607,65.12,81.811,65.183,82.078,65.183z"/>
		<path fill="#685334" d="M89.892,63.561c0,0.713-0.171,1.288-0.512,1.725c-0.341,0.437-0.812,0.656-1.412,0.656
			c-0.304,0-0.572-0.051-0.802-0.153c-0.23-0.103-0.426-0.256-0.587-0.46v2.417h-0.9v-6.845h0.69l0.142,0.64
			c0.162-0.237,0.363-0.418,0.603-0.543c0.241-0.125,0.521-0.188,0.841-0.188c0.612,0,1.088,0.243,1.428,0.729
			c0.339,0.486,0.509,1.128,0.509,1.926V63.561z M88.992,63.463c0-0.56-0.11-1.02-0.332-1.381c-0.221-0.36-0.546-0.541-0.976-0.541
			c-0.259,0-0.48,0.059-0.662,0.176c-0.183,0.117-0.331,0.278-0.444,0.481v2.387c0.113,0.204,0.261,0.363,0.444,0.477
			c0.182,0.114,0.407,0.171,0.671,0.171c0.427,0,0.749-0.156,0.969-0.468c0.219-0.312,0.329-0.714,0.329-1.207V63.463z"/>
		<path fill="#685334" d="M93.05,65.942c-0.688,0-1.236-0.229-1.643-0.688c-0.406-0.458-0.61-1.053-0.61-1.784v-0.201
			c0-0.704,0.209-1.29,0.628-1.757c0.418-0.468,0.915-0.702,1.487-0.702c0.667,0,1.171,0.201,1.513,0.604
			c0.341,0.402,0.512,0.938,0.512,1.608v0.563h-3.208l-0.014,0.022c0.009,0.474,0.129,0.864,0.361,1.169
			c0.232,0.306,0.556,0.458,0.974,0.458c0.305,0,0.572-0.043,0.802-0.13c0.23-0.086,0.429-0.206,0.596-0.358L94.8,65.33
			c-0.177,0.175-0.41,0.32-0.699,0.437S93.461,65.942,93.05,65.942z M92.913,61.519c-0.302,0-0.559,0.127-0.772,0.38
			c-0.213,0.253-0.344,0.571-0.393,0.954l0.009,0.023h2.28v-0.118c0-0.353-0.094-0.646-0.283-0.884
			C93.564,61.637,93.284,61.519,92.913,61.519z"/>
		<path fill="#685334" d="M98.286,61.696l-0.461-0.027c-0.238,0-0.438,0.056-0.601,0.169c-0.163,0.113-0.289,0.271-0.377,0.475
			v3.532h-0.9v-4.944h0.804l0.087,0.722c0.14-0.256,0.313-0.456,0.519-0.599s0.442-0.215,0.71-0.215
			c0.067,0,0.131,0.005,0.192,0.016s0.111,0.022,0.151,0.034L98.286,61.696z"/>
		<path fill="#685334" d="M102.029,64.529c0-0.198-0.075-0.361-0.226-0.488c-0.151-0.128-0.437-0.239-0.857-0.334
			c-0.6-0.131-1.051-0.308-1.354-0.531s-0.455-0.529-0.455-0.915c0-0.401,0.17-0.744,0.512-1.027s0.786-0.424,1.334-0.424
			c0.576,0,1.034,0.148,1.373,0.443c0.34,0.295,0.502,0.655,0.487,1.079l-0.009,0.027h-0.859c0-0.217-0.091-0.411-0.272-0.583
			c-0.182-0.172-0.421-0.258-0.72-0.258c-0.319,0-0.557,0.07-0.713,0.21c-0.155,0.14-0.232,0.31-0.232,0.507
			c0,0.195,0.068,0.349,0.206,0.461c0.137,0.113,0.416,0.214,0.836,0.302c0.625,0.134,1.089,0.316,1.394,0.546
			c0.305,0.23,0.457,0.539,0.457,0.925c0,0.439-0.178,0.793-0.532,1.065c-0.355,0.271-0.818,0.407-1.391,0.407
			c-0.631,0-1.127-0.16-1.49-0.48c-0.363-0.32-0.535-0.693-0.517-1.12l0.009-0.027h0.859c0.015,0.318,0.134,0.551,0.356,0.698
			c0.223,0.147,0.483,0.221,0.782,0.221c0.32,0,0.57-0.065,0.751-0.194S102.029,64.74,102.029,64.529z"/>
		<path fill="#685334" d="M40.841,70.866h-0.9v-0.918h0.9V70.866z M40.841,77.076h-0.9v-4.944h0.9V77.076z"/>
		<path fill="#685334" d="M43.03,72.131l0.063,0.736c0.165-0.262,0.371-0.465,0.62-0.61c0.248-0.145,0.531-0.217,0.848-0.217
			c0.533,0,0.946,0.156,1.238,0.469c0.292,0.312,0.439,0.794,0.439,1.446v3.121h-0.9v-3.103c0-0.436-0.086-0.745-0.258-0.928
			c-0.172-0.183-0.435-0.274-0.788-0.274c-0.259,0-0.488,0.063-0.688,0.188c-0.199,0.125-0.359,0.295-0.478,0.512v3.605h-0.9v-4.944
			H43.03z"/>
		<path fill="#685334" d="M51.191,70.423l2.12,5.405h0.027l2.12-5.405h1.151v6.653h-0.9v-2.632l0.091-2.705l-0.023-0.004
			l-2.157,5.342h-0.599l-2.147-5.328l-0.023,0.004l0.087,2.691v2.632h-0.9v-6.653H51.191z"/>
		<path fill="#685334" d="M59.064,70.866h-0.9v-0.918h0.9V70.866z M59.064,77.076h-0.9v-4.944h0.9V77.076z"/>
		<path fill="#685334" d="M61.422,77.076h-0.9v-7.128h0.9V77.076z"/>
		<path fill="#685334" d="M64.073,75.275l0.105,0.599h0.027l0.128-0.599l0.987-3.144h0.722l0.991,3.144l0.142,0.667h0.027
			l0.132-0.667l0.777-3.144h0.896l-1.435,4.944h-0.727l-0.955-3.011l-0.206-0.841l-0.027,0.004l-0.196,0.836l-0.942,3.011h-0.727
			l-1.435-4.944h0.896L64.073,75.275z"/>
		<path fill="#685334" d="M72.928,77.076c-0.031-0.149-0.055-0.281-0.071-0.396c-0.017-0.114-0.027-0.229-0.03-0.345
			c-0.168,0.237-0.386,0.437-0.656,0.596c-0.27,0.16-0.56,0.24-0.871,0.24c-0.515,0-0.907-0.131-1.176-0.395
			c-0.27-0.263-0.405-0.627-0.405-1.09c0-0.472,0.191-0.842,0.574-1.108c0.382-0.267,0.9-0.399,1.556-0.399h0.978v-0.489
			c0-0.289-0.089-0.519-0.265-0.688c-0.177-0.169-0.426-0.253-0.75-0.253c-0.289,0-0.524,0.074-0.706,0.222
			c-0.181,0.148-0.272,0.325-0.272,0.532h-0.859l-0.009-0.028c-0.018-0.359,0.152-0.688,0.51-0.987
			c0.358-0.298,0.82-0.448,1.387-0.448c0.561,0,1.012,0.143,1.353,0.427c0.341,0.285,0.512,0.695,0.512,1.232v2.38
			c0,0.177,0.009,0.347,0.028,0.512c0.018,0.165,0.052,0.326,0.1,0.484H72.928z M71.434,76.413c0.326,0,0.62-0.083,0.882-0.25
			c0.262-0.167,0.432-0.359,0.512-0.574v-0.802h-1.01c-0.362,0-0.652,0.091-0.87,0.273s-0.327,0.396-0.327,0.643
			c0,0.218,0.068,0.391,0.206,0.519S71.166,76.413,71.434,76.413z"/>
		<path fill="#685334" d="M78.174,76.345c-0.155,0.265-0.355,0.469-0.599,0.612c-0.244,0.143-0.525,0.214-0.845,0.214
			c-0.54,0-0.96-0.172-1.261-0.516c-0.302-0.344-0.453-0.88-0.453-1.608v-2.916h0.9v2.925c0,0.527,0.078,0.89,0.233,1.087
			c0.155,0.198,0.397,0.297,0.726,0.297c0.32,0,0.584-0.064,0.793-0.194c0.208-0.129,0.366-0.313,0.473-0.551v-3.564h0.9v4.944
			h-0.809L78.174,76.345z"/>
		<path fill="#685334" d="M81.843,74.787h-0.584v2.289h-0.9v-7.128h0.9v4.131h0.576l1.353-1.947h1.078l-1.69,2.244l1.933,2.7h-1.06
			L81.843,74.787z"/>
		<path fill="#685334" d="M87.112,77.171c-0.688,0-1.236-0.229-1.643-0.688s-0.61-1.053-0.61-1.784v-0.201
			c0-0.704,0.209-1.29,0.628-1.757c0.418-0.467,0.915-0.701,1.487-0.701c0.667,0,1.171,0.201,1.513,0.603
			c0.341,0.402,0.512,0.938,0.512,1.608v0.562h-3.208l-0.014,0.023c0.009,0.474,0.129,0.864,0.361,1.169
			c0.232,0.305,0.556,0.458,0.974,0.458c0.304,0,0.572-0.043,0.802-0.13c0.23-0.086,0.429-0.206,0.596-0.358l0.352,0.585
			c-0.177,0.175-0.41,0.32-0.699,0.437C87.873,77.113,87.523,77.171,87.112,77.171z M86.975,72.749c-0.302,0-0.559,0.126-0.772,0.38
			c-0.213,0.253-0.344,0.571-0.393,0.954l0.01,0.023h2.28v-0.118c0-0.352-0.094-0.647-0.283-0.884S87.346,72.749,86.975,72.749z"/>
		<path fill="#685334" d="M92.061,77.171c-0.688,0-1.236-0.229-1.643-0.688s-0.61-1.053-0.61-1.784v-0.201
			c0-0.704,0.209-1.29,0.628-1.757c0.418-0.467,0.914-0.701,1.487-0.701c0.667,0,1.171,0.201,1.513,0.603
			c0.341,0.402,0.512,0.938,0.512,1.608v0.562H90.74l-0.014,0.023c0.009,0.474,0.13,0.864,0.361,1.169
			c0.231,0.305,0.556,0.458,0.974,0.458c0.304,0,0.572-0.043,0.802-0.13c0.23-0.086,0.429-0.206,0.596-0.358l0.352,0.585
			c-0.176,0.175-0.41,0.32-0.699,0.437C92.822,77.113,92.472,77.171,92.061,77.171z M91.923,72.749c-0.301,0-0.559,0.126-0.772,0.38
			c-0.213,0.253-0.344,0.571-0.393,0.954l0.009,0.023h2.28v-0.118c0-0.352-0.094-0.647-0.283-0.884S92.295,72.749,91.923,72.749z"/>
	</g>
	<g>
		<path fill="#685334" d="M58.151,104.947H52.49v-0.815l2.86-3.173c0.512-0.571,0.858-1.025,1.041-1.361
			c0.182-0.336,0.273-0.68,0.273-1.032c0-0.436-0.127-0.803-0.381-1.101s-0.591-0.446-1.01-0.446c-0.604,0-1.049,0.155-1.335,0.465
			c-0.286,0.31-0.428,0.744-0.428,1.304h-1.134l-0.012-0.036c-0.021-0.751,0.229-1.383,0.75-1.895
			c0.52-0.512,1.239-0.768,2.159-0.768c0.783,0,1.408,0.229,1.874,0.687c0.466,0.458,0.698,1.041,0.698,1.748
			c0,0.476-0.141,0.953-0.422,1.431c-0.282,0.478-0.677,0.99-1.185,1.538l-2.297,2.495l0.012,0.03h4.198V104.947z"/>
		<path fill="#685334" d="M64.934,101.618c0,1.116-0.247,1.97-0.741,2.564s-1.171,0.891-2.03,0.891s-1.539-0.297-2.039-0.894
			c-0.5-0.596-0.75-1.45-0.75-2.561v-2.069c0-1.112,0.249-1.966,0.747-2.564c0.498-0.598,1.175-0.896,2.03-0.896
			c0.859,0,1.538,0.299,2.036,0.896c0.498,0.598,0.747,1.452,0.747,2.564V101.618z M63.752,99.295c0-0.755-0.137-1.323-0.411-1.705
			c-0.274-0.382-0.67-0.572-1.19-0.572s-0.916,0.19-1.188,0.572c-0.272,0.381-0.408,0.95-0.408,1.705v2.559
			c0,0.755,0.138,1.325,0.414,1.711s0.674,0.578,1.193,0.578c0.52,0,0.915-0.191,1.185-0.575c0.27-0.383,0.405-0.955,0.405-1.714
			V99.295z"/>
		<path fill="#685334" d="M69.702,104.947h-1.182v-7.581l-1.787,0.024v-0.852l2.969-0.324V104.947z"/>
		<path fill="#685334" d="M76.581,96.089c0.3,0,0.597,0.034,0.891,0.102c0.294,0.068,0.537,0.154,0.729,0.258l-0.252,0.906
			c-0.195-0.1-0.401-0.181-0.615-0.243s-0.465-0.093-0.752-0.093c-0.624,0-1.126,0.25-1.508,0.75
			c-0.382,0.5-0.573,1.151-0.573,1.955v0.138c0.256-0.224,0.549-0.399,0.878-0.525c0.33-0.126,0.685-0.189,1.065-0.189
			c0.779,0,1.401,0.271,1.865,0.81s0.696,1.223,0.696,2.051c0,0.903-0.248,1.64-0.741,2.21s-1.152,0.854-1.976,0.854
			c-0.855,0-1.563-0.31-2.123-0.93s-0.839-1.493-0.839-2.621v-1.667c0-1.12,0.312-2.027,0.935-2.723
			C74.884,96.437,75.657,96.089,76.581,96.089z M76.179,100.029c-0.404,0-0.748,0.082-1.032,0.246
			c-0.284,0.164-0.5,0.381-0.647,0.653v0.707c0,0.803,0.169,1.421,0.509,1.856c0.34,0.436,0.766,0.653,1.278,0.653
			c0.483,0,0.861-0.205,1.13-0.614c0.27-0.409,0.405-0.917,0.405-1.524c0-0.575-0.145-1.048-0.435-1.419
			C77.098,100.215,76.695,100.029,76.179,100.029z"/>
	</g>
</g>
<g id="Layer_2" display="none">
	
		<image display="inline" overflow="visible" opacity="0.5" width="394" height="294" xlink:href="../../../Untitled-1.png"  transform="matrix(3.5919 0 0 3.5919 202.7129 20.9805)">
	</image>
</g>
</svg>
