<?xml version="1.0" encoding="utf-8"?>
<!-- Generator: Adobe Illustrator 16.0.3, SVG Export Plug-In . SVG Version: 6.00 Build 0)  -->
<!DOCTYPE svg PUBLIC "-//W3C//DTD SVG 1.1//EN" "http://www.w3.org/Graphics/SVG/1.1/DTD/svg11.dtd">
<svg version="1.1" id="Layer_1" xmlns="http://www.w3.org/2000/svg" xmlns:xlink="http://www.w3.org/1999/xlink" x="0px" y="0px"
	 width="93.248px" height="129.417px" viewBox="0 0 93.248 129.417" enable-background="new 0 0 93.248 129.417"
	 xml:space="preserve">
<path fill="none" stroke="#685334" stroke-width="2.9631" d="M81.459,3.451c0-1.107-0.906-2.004-2.022-2.004H4.005
	c-1.116,0-2.022,0.897-2.022,2.004v122.413c0,1.108,0.906,2.005,2.022,2.005h75.432c1.116,0,2.022-0.896,2.022-2.005V3.451z"/>
<g>
	<path fill="none" d="M48.258,96.871l-4.694,22.117h5.011l0.688-3.977h1.884c-0.034-0.307-0.14-0.656-0.183-1.077
		c-0.056-0.542-0.18-1.536-0.18-1.536s-0.194-0.196-0.346-0.789c-0.095-0.374-0.064-0.368-0.413-0.77
		c-0.349-0.401-0.519-0.262-0.519-0.262l0.167-0.161l-0.345-0.291c0,0-0.073-0.069,0.553-0.303c0.283-0.105,0.524,0.055,0.545-0.469
		c0.019-0.519-0.426-0.511-1.13-1.095c-0.724-0.603-1.738-0.743-1.738-0.743s0.305-0.233,0.292-0.489
		c-0.022-0.416-0.829-0.918-0.854-0.965c-0.071-0.131,0.318-0.222,1.049-0.177c0.214,0.012,0.161-0.313,0.161-0.313
		s0.194-0.045,0.656,0.36c0.362,0.319,0.948,0.156,0.97,0.046c0.167-0.806-0.371-1.115-0.596-1.675
		c-0.226-0.561-0.494-1.011-0.494-1.011s0.243-0.098,0.449-0.363c0.206-0.264-0.178-0.887-0.178-0.887s0.149,0.117,0.203,0.12
		c0.053,0.003,0.136-0.122,0.136-0.122s0.132,0.265,0.486,0.518c0.359,0.255,0.531,0.309,0.754,0.164
		c0.435-0.281-0.349-1.27-0.152-1.589c0.076-0.125,0.082-0.335,0.082-0.335s0.228,0.45,0.549,0.356
		c0.322-0.095,0.222-0.785,0.322-1.156c0.088-0.325,0.13-0.156,0.153-0.239c0.088-0.316,0.088-0.316,0.088-0.316
		s0.08,0.003,0.216,0.376c0.075,0.205,0.066,0.056,0.198,0.321c0.089,0.177,0.215,0.479,0.336,0.683
		c0.165,0.282,0.405,0.303,0.405,0.303l-0.019,0.183l0.091,0.114c0,0-0.103,0.086-0.16,0.522c-0.043,0.328-0.117,0.483-0.069,0.592
		c0.038,0.084,0.681-0.068,0.681-0.068l0.015,0.202l0.176,0.136c0,0,0.01,0.423-0.255,0.646c-0.422,0.355-0.445,0.236-0.581,0.888
		c-0.137,0.651-0.315,1.156-0.271,1.212c0.045,0.058,0.506-0.26,0.79-0.466c0.285-0.205,0.71-0.451,0.71-0.451
		s-0.058,0.41,0.003,0.394c0.616-0.162,1.028-0.125,1.028-0.125s-0.542,1.2-0.553,1.346c-0.008,0.109,0.302,0.673,0.302,0.673
		s-0.804,0.236-1.088,0.442c-0.285,0.206-0.391,0.407-0.734,0.623c-0.338,0.212-0.479,0.504-0.508,1.128
		c-0.015,0.329,0.5,0.738,0.5,0.738s-0.017,0.109-0.528,0.359c-0.212,0.104-0.071,0.17-0.318,0.479
		c-0.147,0.184-0.142,0.35-0.464,0.472c-0.293,0.11-0.357,1.241-0.357,1.241s0.095,1.061,0.161,1.545
		c0.056,0.409,0.109,0.763,0.191,1.061h1.386l0.658,3.977h5.023l-4.038-22.117H48.258z"/>
	<path fill="none" d="M38.801,106.55c-2.089-1.225-3.598-2.419-3.598-4.635c0-1.873,1.049-3.589,3.152-3.589
		c2.587,0,3.364,2.234,3.93,4.109l0.822-0.165c-0.241-1.802-0.429-3.056-0.559-4.315c-0.817-0.223-1.88-0.658-3.548-0.658
		c-3.82,0-6.113,2.64-6.113,5.693c0,3.415,3.179,5.146,4.956,6.191c2.092,1.227,3.696,2.634,3.696,5.042
		c0,2.479-1.311,4.094-3.582,4.094c-3.242,0-4.583-3.405-5.062-5.077l-0.819,0.178c0.301,1.873,0.539,3.918,0.819,4.884
		c0.535,0.215,1.178,0.482,1.907,0.691c0.641,0.195,1.633,0.352,2.603,0.356c3.78-0.004,6.508-2.565,6.508-6.179
		C43.913,109.313,40.773,107.688,38.801,106.55z"/>
	<path fill="none" d="M29.577,115.086v-13.5c0-2.585,0.215-2.92,2.591-3.161v-0.733h-7.654v0.733c2.347,0.241,2.59,0.575,2.59,3.161
		v13.5c0,2.585-0.243,2.921-2.59,3.132v0.732h7.654v-0.732C29.792,118.007,29.577,117.672,29.577,115.086z"/>
	<path fill="none" d="M59.901,118.13c0-0.159-0.095-0.229-0.286-0.229h-0.308v0.809h0.123v-0.351h0.141l0.214,0.351h0.137
		l-0.23-0.356C59.811,118.338,59.901,118.274,59.901,118.13z M59.43,118.254v-0.25h0.167c0.085,0,0.176,0.019,0.176,0.119
		c0,0.124-0.093,0.131-0.197,0.131H59.43z"/>
	<path fill="none" d="M59.579,117.603c-0.386,0-0.713,0.297-0.713,0.7c0,0.406,0.327,0.703,0.713,0.703
		c0.382,0,0.709-0.297,0.709-0.703C60.288,117.9,59.96,117.603,59.579,117.603z M59.579,118.889c-0.321,0-0.572-0.247-0.572-0.585
		c0-0.332,0.25-0.583,0.572-0.583c0.317,0,0.567,0.251,0.567,0.583C60.146,118.642,59.896,118.889,59.579,118.889z"/>
	<path fill="none" d="M73.133,21.199h-62.91c-1.041,0-1.884,0.844-1.884,1.884V90.26c0,1.041,0.844,1.884,1.884,1.884h62.91
		c1.041,0,1.884-0.843,1.884-1.884V23.083C75.018,22.043,74.174,21.199,73.133,21.199z"/>
	<path fill="#685334" d="M59.579,117.72c-0.321,0-0.572,0.251-0.572,0.583c0,0.338,0.25,0.585,0.572,0.585
		c0.317,0,0.567-0.247,0.567-0.585C60.146,117.971,59.896,117.72,59.579,117.72z M59.785,118.709l-0.214-0.351H59.43v0.351h-0.123
		V117.9h0.308c0.191,0,0.286,0.071,0.286,0.229c0,0.145-0.09,0.208-0.209,0.224l0.23,0.356H59.785z"/>
	<path fill="#685334" d="M59.773,118.123c0-0.1-0.091-0.119-0.176-0.119H59.43v0.25h0.146
		C59.681,118.254,59.773,118.247,59.773,118.123z"/>
	<path fill="#685334" d="M53.534,15.061c0-2.107-1.859-2.238-3.175-2.238h-0.712v3.058c0,1.096,0.015,1.229,1.316,1.229
		C52.233,17.108,53.534,16.625,53.534,15.061z"/>
	<path fill="#685334" d="M53.007,10.379c0-1.478-1.022-1.873-2.277-1.873c-0.976,0-1.083,0.132-1.083,1.229v2.516h0.712
		C51.257,12.252,53.007,12.237,53.007,10.379z"/>
	<path fill="#685334" d="M76.423,4.583H7.019c-1.028,0-1.86,0.854-1.86,1.909v115.908c0,1.055,0.833,1.909,1.86,1.909h69.405
		c1.028,0,1.86-0.854,1.86-1.909V6.491C78.284,5.437,77.451,4.583,76.423,4.583z M65.909,17.386c0.851,0,1.348-0.102,1.348-1.2
		V9.429c0-1.097-0.497-1.199-1.348-1.199V7.937h4.104c1.672,0,3.47,0.409,3.47,2.238c0,1.872-1.612,2.37-2.71,2.457l2.043,3.276
		c0.497,0.79,0.93,1.478,1.905,1.478v0.292h-2.354l-3.098-4.944h-0.635v3.452c0,1.098,0.511,1.2,1.363,1.2v0.292h-4.089V17.386z
		 M56.879,17.386c0.837,0,1.348-0.102,1.348-1.2V9.429c0-1.097-0.511-1.199-1.348-1.199V7.937h7.017l0.108,1.784h-0.387
		c-0.186-0.892-0.697-1.214-1.797-1.214h-1.362c-0.806,0-0.852,0.161-0.852,1.229v2.56h1.999c1.038,0,1.409-0.22,1.409-1.229h0.326
		v3.027h-0.326c0-0.819-0.371-1.229-1.409-1.229h-1.999v3.014c0,1.141,0.078,1.229,0.852,1.229h1.487
		c1.192,0,1.673-0.351,1.905-1.361h0.387l-0.108,1.931h-7.249V17.386z M46.921,17.386c0.836,0,1.347-0.102,1.347-1.2V9.429
		c0-1.097-0.511-1.199-1.347-1.199V7.937h3.81c1.193,0,3.732,0,3.732,2.34c0,1.477-1.1,1.975-1.828,2.194V12.5
		c1.085,0.175,2.355,0.775,2.355,2.56c0,2.413-2.463,2.618-4.027,2.618h-4.042V17.386z M32.656,17.386
		c0.837,0,1.348-0.102,1.348-1.2V9.429c0-1.097-0.511-1.199-1.348-1.199V7.937h3.222l3.036,8.323h0.031l3.021-8.323h3.19v0.292
		c-0.852,0-1.347,0.102-1.347,1.199v6.757c0,1.098,0.496,1.2,1.347,1.2v0.292h-3.98v-0.292c0.835,0,1.347-0.102,1.347-1.2V8.785
		h-0.031l-3.221,8.894h-1.131l-3.221-8.894h-0.031v7.401c0,1.098,0.511,1.2,1.347,1.2v0.292h-3.578V17.386z M23.287,17.386
		c0.836,0,1.347-0.102,1.347-1.2V9.429c0-1.097-0.511-1.199-1.347-1.199V7.937h7.016l0.108,1.784h-0.387
		c-0.186-0.892-0.697-1.214-1.796-1.214h-1.363c-0.805,0-0.852,0.161-0.852,1.229v2.56h1.998c1.038,0,1.41-0.22,1.41-1.229h0.325
		v3.027H29.42c0-0.819-0.372-1.229-1.41-1.229h-1.998v3.014c0,1.141,0.078,1.229,0.852,1.229h1.486c1.193,0,1.673-0.351,1.905-1.361
		h0.387l-0.108,1.931h-7.248V17.386z M8.372,17.386c0.836,0,1.348-0.102,1.348-1.2V9.429c0-1.097-0.512-1.199-1.348-1.199V7.937
		h3.221l3.036,8.323h0.031l3.02-8.323h3.19v0.292c-0.852,0-1.348,0.102-1.348,1.199v6.757c0,1.098,0.496,1.2,1.348,1.2v0.292h-3.98
		v-0.292c0.836,0,1.348-0.102,1.348-1.2V8.785h-0.031l-3.221,8.894h-1.13l-3.222-8.894h-0.031v7.401c0,1.098,0.511,1.2,1.348,1.2
		v0.292H8.372V17.386z M32.168,118.951h-7.654v-0.732c2.347-0.211,2.59-0.547,2.59-3.132v-13.5c0-2.585-0.243-2.92-2.59-3.161
		v-0.733h7.654v0.733c-2.375,0.241-2.591,0.575-2.591,3.161v13.5c0,2.585,0.215,2.921,2.591,3.132V118.951z M37.405,119.349
		c-0.97-0.004-1.961-0.161-2.603-0.356c-0.729-0.209-1.372-0.476-1.907-0.691c-0.28-0.965-0.518-3.011-0.819-4.884l0.819-0.178
		c0.479,1.672,1.819,5.077,5.062,5.077c2.271,0,3.582-1.614,3.582-4.094c0-2.407-1.604-3.815-3.696-5.042
		c-1.777-1.045-4.956-2.776-4.956-6.191c0-3.054,2.292-5.693,6.113-5.693c1.668,0,2.731,0.436,3.548,0.658
		c0.13,1.259,0.318,2.513,0.559,4.315l-0.822,0.165c-0.566-1.875-1.343-4.109-3.93-4.109c-2.103,0-3.152,1.716-3.152,3.589
		c0,2.216,1.509,3.41,3.598,4.635c1.972,1.139,5.112,2.763,5.112,6.62C43.913,116.783,41.185,119.345,37.405,119.349z
		 M53.578,118.988l-0.658-3.977h-1.386c-0.082-0.298-0.135-0.652-0.191-1.061c-0.066-0.484-0.161-1.545-0.161-1.545
		s0.063-1.13,0.357-1.241c0.322-0.123,0.316-0.288,0.464-0.472c0.248-0.309,0.106-0.375,0.318-0.479
		c0.511-0.25,0.528-0.359,0.528-0.359s-0.515-0.409-0.5-0.738c0.029-0.624,0.17-0.916,0.508-1.128
		c0.344-0.216,0.449-0.417,0.734-0.623c0.284-0.206,1.088-0.442,1.088-0.442s-0.31-0.564-0.302-0.673
		c0.01-0.146,0.553-1.346,0.553-1.346s-0.412-0.038-1.028,0.125c-0.062,0.016-0.003-0.394-0.003-0.394s-0.425,0.246-0.71,0.451
		c-0.284,0.206-0.745,0.523-0.79,0.466c-0.045-0.057,0.134-0.561,0.271-1.212c0.136-0.652,0.159-0.533,0.581-0.888
		c0.266-0.223,0.255-0.646,0.255-0.646l-0.176-0.136l-0.015-0.202c0,0-0.643,0.152-0.681,0.068
		c-0.048-0.108,0.026-0.264,0.069-0.592c0.057-0.436,0.16-0.522,0.16-0.522l-0.091-0.114l0.019-0.183c0,0-0.24-0.021-0.405-0.303
		c-0.121-0.204-0.247-0.506-0.336-0.683c-0.131-0.265-0.123-0.116-0.198-0.321c-0.136-0.373-0.216-0.376-0.216-0.376
		s0,0-0.088,0.316c-0.023,0.083-0.065-0.086-0.153,0.239c-0.1,0.371,0,1.062-0.322,1.156c-0.321,0.094-0.549-0.356-0.549-0.356
		s-0.006,0.21-0.082,0.335c-0.197,0.319,0.587,1.308,0.152,1.589c-0.223,0.145-0.396,0.091-0.754-0.164
		c-0.354-0.252-0.486-0.518-0.486-0.518s-0.083,0.125-0.136,0.122c-0.053-0.002-0.203-0.12-0.203-0.12s0.384,0.623,0.178,0.887
		c-0.206,0.265-0.449,0.363-0.449,0.363s0.268,0.451,0.494,1.011c0.226,0.56,0.763,0.87,0.596,1.675
		c-0.022,0.109-0.608,0.273-0.97-0.046c-0.462-0.405-0.656-0.36-0.656-0.36s0.053,0.325-0.161,0.313
		c-0.731-0.045-1.121,0.046-1.049,0.177c0.026,0.047,0.832,0.549,0.854,0.965c0.013,0.256-0.292,0.489-0.292,0.489
		s1.014,0.14,1.738,0.743c0.704,0.584,1.149,0.577,1.13,1.095c-0.021,0.524-0.262,0.363-0.545,0.469
		c-0.625,0.234-0.553,0.303-0.553,0.303l0.345,0.291l-0.167,0.161c0,0,0.17-0.139,0.519,0.262c0.349,0.402,0.318,0.396,0.413,0.77
		c0.152,0.593,0.346,0.789,0.346,0.789s0.124,0.994,0.18,1.536c0.042,0.42,0.149,0.77,0.183,1.077h-1.884l-0.688,3.977h-5.011
		l4.694-22.117h6.306l4.038,22.117H53.578z M59.579,119.006c-0.386,0-0.713-0.297-0.713-0.703c0-0.403,0.327-0.7,0.713-0.7
		c0.382,0,0.709,0.297,0.709,0.7C60.288,118.709,59.96,119.006,59.579,119.006z M75.018,90.26c0,1.041-0.844,1.884-1.884,1.884
		h-62.91c-1.041,0-1.884-0.843-1.884-1.884V23.083c0-1.041,0.844-1.884,1.884-1.884h62.91c1.041,0,1.884,0.844,1.884,1.884V90.26z"
		/>
	<path fill="#685334" d="M72.026,10.175c0-1.244-1.146-1.668-2.385-1.668c-0.929,0-1.007,0.176-1.007,0.966v2.691
		C70.432,12.164,72.026,12.003,72.026,10.175z"/>
</g>
<g>
	<path fill="none" d="M46.934,88.131c-0.099,0.116-0.26,0.19-0.483,0.223c-0.229,0.034-0.417-0.001-0.562-0.105
		c-0.145-0.104-0.242-0.323-0.291-0.657c-0.039-0.268-0.014-0.472,0.074-0.614c0.116-0.188,0.306-0.303,0.571-0.341
		c0.116-0.018,0.225-0.014,0.325,0.011c0.101,0.024,0.188,0.066,0.264,0.127c0.045,0.036,0.093,0.098,0.143,0.184l0.999-0.331
		c-0.178-0.298-0.414-0.502-0.708-0.616c-0.294-0.113-0.678-0.135-1.152-0.065c-0.606,0.088-1.056,0.291-1.348,0.606
		c-0.292,0.315-0.402,0.721-0.329,1.217c0.055,0.371,0.193,0.663,0.417,0.875c0.223,0.21,0.471,0.344,0.745,0.401
		c0.272,0.057,0.613,0.055,1.022-0.005c0.336-0.049,0.609-0.129,0.815-0.237c0.207-0.11,0.373-0.252,0.498-0.427
		c0.125-0.175,0.204-0.381,0.239-0.621l-1.054-0.099C47.094,87.855,47.033,88.015,46.934,88.131z"/>
	<polygon fill="none" points="54.771,85.804 53.809,83.722 52.742,84.214 54.015,86.971 56.743,85.711 56.43,85.037 	"/>
	
		<rect x="41.358" y="87.231" transform="matrix(-0.037 -0.9993 0.9993 -0.037 -43.2971 133.9135)" fill="none" width="3.036" height="1.175"/>
	<path fill="none" d="M51.958,84.545l-1.116,0.338l0.535,1.77c0.049,0.159,0.031,0.3-0.052,0.421
		c-0.083,0.122-0.221,0.211-0.415,0.271c-0.195,0.059-0.361,0.06-0.498,0.004c-0.137-0.055-0.228-0.162-0.277-0.32l-0.535-1.77
		l-1.117,0.338l0.524,1.73c0.042,0.142,0.126,0.295,0.252,0.458c0.078,0.103,0.191,0.191,0.34,0.263
		c0.149,0.074,0.303,0.118,0.461,0.134s0.344,0.002,0.559-0.041c0.215-0.044,0.411-0.092,0.587-0.146
		c0.306-0.091,0.557-0.202,0.756-0.333c0.142-0.094,0.268-0.219,0.376-0.376c0.108-0.157,0.173-0.322,0.194-0.495
		c0.021-0.173,0.004-0.345-0.047-0.517L51.958,84.545z"/>
	<path fill="none" d="M28.655,83.693c-0.037-0.175-0.126-0.33-0.27-0.467c-0.143-0.137-0.373-0.293-0.689-0.471l-1.708-0.955
		l-1.482,2.649l1.025,0.574l0.602-1.076L26.224,84c0.093,0.053,0.165,0.12,0.217,0.202c0.037,0.062,0.061,0.165,0.072,0.308
		l0.097,1.12l1.158,0.647l-0.075-1.045c-0.002-0.053-0.019-0.136-0.05-0.247c-0.032-0.111-0.06-0.189-0.084-0.233
		c-0.038-0.063-0.109-0.146-0.211-0.247c0.168,0.058,0.308,0.091,0.42,0.098c0.174,0.011,0.331-0.015,0.47-0.078
		c0.139-0.063,0.25-0.167,0.332-0.315C28.663,84.041,28.692,83.868,28.655,83.693z M27.506,83.701
		c-0.033,0.06-0.083,0.099-0.152,0.12s-0.14,0.018-0.214-0.01c-0.148-0.052-0.246-0.091-0.293-0.117l-0.435-0.243l0.303-0.542
		l0.453,0.253c0.188,0.105,0.304,0.2,0.346,0.284C27.557,83.529,27.554,83.615,27.506,83.701z"/>
	<path fill="none" d="M31.705,84.571l-2.048-0.787l-1.089,2.834l1.891,0.726c0.081,0.031,0.249,0.081,0.505,0.152
		c0.193,0.051,0.343,0.073,0.453,0.064c0.174-0.011,0.327-0.059,0.458-0.145c0.131-0.084,0.225-0.201,0.281-0.349
		c0.07-0.182,0.067-0.355-0.007-0.521c-0.075-0.167-0.23-0.322-0.468-0.469c0.186,0.018,0.337,0.003,0.456-0.044
		c0.176-0.068,0.296-0.186,0.36-0.353c0.076-0.198,0.049-0.4-0.082-0.605C32.283,84.87,32.047,84.702,31.705,84.571z M31.097,86.546
		c-0.035,0.091-0.102,0.149-0.2,0.173c-0.098,0.025-0.242,0.001-0.43-0.071l-0.559-0.216l0.222-0.579l0.557,0.213
		c0.191,0.074,0.316,0.151,0.373,0.232C31.117,86.38,31.129,86.463,31.097,86.546z M31.372,85.397
		c-0.034,0.088-0.093,0.143-0.178,0.164c-0.084,0.021-0.212,0-0.382-0.066l-0.475-0.182l0.205-0.533l0.482,0.185
		c0.165,0.063,0.272,0.131,0.321,0.203C31.394,85.24,31.403,85.317,31.372,85.397z"/>
	<path fill="none" d="M40.836,88.308c-0.076-0.087-0.135-0.146-0.176-0.175c-0.061-0.041-0.16-0.085-0.297-0.134
		c0.178-0.018,0.318-0.049,0.422-0.089c0.163-0.065,0.293-0.155,0.392-0.271c0.099-0.116,0.154-0.258,0.166-0.427
		c0.015-0.193-0.033-0.36-0.141-0.503c-0.108-0.143-0.255-0.245-0.444-0.309c-0.188-0.062-0.462-0.106-0.825-0.131l-1.951-0.137
		l-0.213,3.029l1.173,0.083l0.086-1.23l0.103,0.008c0.107,0.008,0.201,0.038,0.283,0.089c0.059,0.041,0.125,0.124,0.196,0.248
		l0.565,0.972l1.324,0.093l-0.513-0.913C40.962,88.462,40.912,88.395,40.836,88.308z M40.079,87.378
		c-0.053,0.047-0.119,0.075-0.198,0.081c-0.156,0.018-0.261,0.023-0.315,0.02l-0.497-0.035l0.044-0.618l0.518,0.036
		c0.215,0.015,0.359,0.052,0.434,0.108c0.075,0.058,0.108,0.136,0.101,0.235C40.161,87.271,40.132,87.33,40.079,87.378z"/>
	<polygon fill="none" points="20.213,77.925 20.704,77.494 18.786,75.311 16.504,77.314 17.28,78.197 18.212,77.379 19.187,78.489 
		19.647,78.084 18.672,76.975 19.071,76.625 	"/>
	<path fill="none" d="M35.358,85.579c-0.601-0.133-1.099-0.102-1.495,0.093c-0.396,0.195-0.648,0.534-0.755,1.017
		c-0.077,0.347-0.056,0.654,0.063,0.921c0.119,0.268,0.304,0.484,0.554,0.651s0.583,0.295,1.001,0.389
		c0.41,0.091,0.767,0.105,1.069,0.042c0.303-0.061,0.551-0.187,0.745-0.376s0.331-0.458,0.407-0.804
		c0.105-0.477,0.021-0.883-0.254-1.221C36.419,85.952,35.974,85.715,35.358,85.579z M35.803,87.249
		c-0.073,0.329-0.191,0.543-0.353,0.641c-0.162,0.097-0.365,0.12-0.609,0.066c-0.238-0.053-0.411-0.159-0.521-0.32
		c-0.109-0.161-0.13-0.39-0.064-0.688c0.066-0.302,0.184-0.504,0.352-0.604c0.168-0.099,0.367-0.124,0.595-0.073
		c0.24,0.053,0.415,0.159,0.526,0.319S35.864,86.969,35.803,87.249z"/>
	<path fill="none" d="M17.746,74.543c0.038-0.434-0.116-0.914-0.464-1.441c-0.339-0.513-0.718-0.838-1.139-0.973
		c-0.42-0.136-0.836-0.068-1.25,0.205c-0.296,0.196-0.495,0.431-0.596,0.706c-0.1,0.274-0.119,0.56-0.055,0.853
		c0.063,0.294,0.213,0.619,0.448,0.976c0.232,0.35,0.478,0.609,0.738,0.775c0.26,0.166,0.525,0.249,0.797,0.248
		c0.271,0,0.555-0.098,0.852-0.294C17.485,75.329,17.708,74.977,17.746,74.543z M16.843,74.086
		c-0.031,0.193-0.166,0.367-0.404,0.524c-0.282,0.186-0.515,0.258-0.699,0.215c-0.185-0.042-0.346-0.168-0.484-0.376
		c-0.133-0.203-0.184-0.4-0.15-0.591c0.033-0.192,0.177-0.372,0.432-0.54c0.258-0.171,0.482-0.233,0.672-0.188
		c0.19,0.045,0.349,0.166,0.479,0.361C16.822,73.697,16.874,73.895,16.843,74.086z"/>
	<circle fill="none" cx="41.721" cy="57.15" r="27.841"/>
	<path fill="none" d="M20.462,81.476l0.952,0.729l0.453-0.281l1.053,0.805l-0.152,0.51l0.975,0.746l0.719-3.273l-1.025-0.784
		L20.462,81.476z M23.125,82.052l-0.657-0.502l0.991-0.615L23.125,82.052z"/>
	<path fill="none" d="M65.939,76.85c-0.116,0.007-0.198,0.018-0.246,0.032c-0.07,0.023-0.166,0.075-0.288,0.153
		c0.094-0.152,0.157-0.281,0.188-0.388c0.049-0.169,0.057-0.326,0.027-0.476c-0.032-0.149-0.11-0.28-0.236-0.392
		c-0.144-0.128-0.305-0.194-0.484-0.197c-0.179-0.002-0.351,0.052-0.515,0.162c-0.165,0.11-0.368,0.301-0.61,0.572l-1.304,1.458
		l2.264,2.024l0.784-0.876L64.6,78.099l0.069-0.078c0.071-0.079,0.153-0.135,0.244-0.168c0.068-0.022,0.174-0.023,0.316-0.003
		l1.113,0.148l0.885-0.989l-1.036-0.154C66.139,76.846,66.055,76.844,65.939,76.85z M64.684,77.085
		c-0.082,0.134-0.142,0.221-0.178,0.261l-0.332,0.372l-0.462-0.414l0.346-0.387c0.144-0.161,0.262-0.253,0.352-0.277
		c0.092-0.023,0.174-0.002,0.248,0.063c0.05,0.046,0.078,0.104,0.083,0.175C64.746,76.95,64.728,77.019,64.684,77.085z"/>
	<polygon fill="none" points="58.985,81.686 58.591,81.047 55.548,82.923 55.941,83.563 56.962,82.933 58.163,84.878 59.164,84.262 
		57.964,82.316 	"/>
	<polygon fill="none" points="67.806,74.958 67.311,74.626 68.331,73.108 67.817,72.762 66.796,74.279 66.39,74.006 67.487,72.374 
		66.953,72.014 65.199,74.622 67.719,76.316 69.504,73.661 68.936,73.278 	"/>
	<path fill="none" d="M63.019,79.768l-1.158-1.389l-0.896,0.748l1.183,1.419c0.107,0.128,0.146,0.265,0.117,0.409
		c-0.03,0.144-0.122,0.281-0.277,0.411c-0.157,0.129-0.309,0.197-0.457,0.198c-0.148,0.002-0.274-0.061-0.38-0.187l-1.184-1.421
		l-0.896,0.748l1.157,1.389c0.095,0.113,0.232,0.222,0.411,0.323c0.112,0.064,0.25,0.101,0.417,0.11
		c0.165,0.009,0.325-0.009,0.477-0.057c0.151-0.046,0.317-0.132,0.498-0.256c0.181-0.123,0.342-0.244,0.484-0.362
		c0.245-0.204,0.434-0.405,0.565-0.603c0.095-0.142,0.161-0.306,0.2-0.494c0.038-0.186,0.033-0.363-0.015-0.53
		C63.214,80.058,63.133,79.906,63.019,79.768z"/>
	<path fill="#685334" d="M31.024,84.965l-0.482-0.185l-0.205,0.533l0.475,0.182c0.17,0.065,0.298,0.087,0.382,0.066
		c0.085-0.021,0.144-0.076,0.178-0.164c0.031-0.081,0.022-0.158-0.027-0.229C31.296,85.096,31.189,85.028,31.024,84.965z"/>
	<path fill="#685334" d="M35.202,86.271c-0.229-0.05-0.427-0.025-0.595,0.073c-0.168,0.1-0.285,0.301-0.352,0.604
		c-0.066,0.297-0.044,0.527,0.064,0.688c0.109,0.161,0.283,0.267,0.521,0.32c0.244,0.054,0.447,0.031,0.609-0.066
		c0.162-0.098,0.28-0.312,0.353-0.641c0.061-0.279,0.037-0.499-0.075-0.658S35.442,86.325,35.202,86.271z"/>
	<path fill="#685334" d="M30.687,86.068l-0.557-0.213l-0.222,0.579l0.559,0.216c0.188,0.072,0.332,0.096,0.43,0.071
		c0.098-0.024,0.166-0.082,0.2-0.173c0.032-0.083,0.02-0.167-0.037-0.247C31.003,86.219,30.878,86.142,30.687,86.068z"/>
	<path fill="#685334" d="M27.168,83.162l-0.453-0.253l-0.303,0.542l0.435,0.243c0.047,0.026,0.145,0.065,0.293,0.117
		c0.074,0.027,0.146,0.03,0.214,0.01s0.119-0.06,0.152-0.12c0.048-0.086,0.051-0.171,0.008-0.255
		C27.472,83.362,27.356,83.268,27.168,83.162z"/>
	<polygon fill="#685334" points="23.125,82.052 23.459,80.936 22.468,81.55 	"/>
	<path fill="#685334" d="M16.209,73.13c-0.189-0.045-0.414,0.017-0.672,0.188c-0.255,0.168-0.399,0.347-0.432,0.54
		c-0.033,0.191,0.017,0.389,0.15,0.591c0.138,0.208,0.299,0.334,0.484,0.376c0.185,0.042,0.417-0.03,0.699-0.215
		c0.238-0.157,0.374-0.332,0.404-0.524c0.031-0.191-0.021-0.389-0.156-0.594C16.558,73.296,16.399,73.175,16.209,73.13z"/>
	<path fill="#685334" d="M64.41,76.641c-0.09,0.023-0.208,0.116-0.352,0.277l-0.346,0.387l0.462,0.414l0.332-0.372
		c0.036-0.041,0.096-0.127,0.178-0.261c0.044-0.066,0.063-0.135,0.057-0.207c-0.005-0.071-0.033-0.129-0.083-0.175
		C64.583,76.639,64.501,76.618,64.41,76.641z"/>
	<path fill="#685334" d="M36.958,27.45c0.159,0.113,0.358,0.152,0.6,0.119c0.248-0.035,0.431-0.126,0.548-0.274
		c0.118-0.148,0.154-0.39,0.107-0.724c-0.04-0.283-0.14-0.48-0.299-0.591c-0.16-0.11-0.362-0.149-0.604-0.115
		c-0.232,0.033-0.411,0.125-0.533,0.276c-0.123,0.152-0.162,0.381-0.12,0.688C36.699,27.13,36.8,27.337,36.958,27.45z"/>
	<path fill="#685334" d="M59.56,33.19c0.2,0.149,0.395,0.213,0.583,0.19s0.383-0.17,0.585-0.44c0.17-0.229,0.238-0.439,0.202-0.631
		c-0.036-0.191-0.152-0.36-0.348-0.506c-0.188-0.14-0.379-0.2-0.573-0.177c-0.193,0.022-0.383,0.157-0.569,0.406
		c-0.182,0.244-0.256,0.462-0.223,0.653C59.25,32.876,59.364,33.045,59.56,33.19z"/>
	<polygon fill="#685334" points="27.835,30.125 26.959,29.355 27.106,30.512 	"/>
	<polygon fill="#685334" points="46.863,26.104 46.278,27.112 47.092,27.246 	"/>
	<path fill="#685334" d="M20.059,34.749c-0.001-0.071-0.025-0.131-0.073-0.179c-0.07-0.07-0.151-0.096-0.244-0.078
		c-0.092,0.019-0.214,0.104-0.367,0.257l-0.367,0.367l0.438,0.439l0.353-0.353c0.038-0.038,0.102-0.121,0.191-0.251
		C20.037,34.888,20.06,34.82,20.059,34.749z"/>
	<path fill="#685334" d="M72.618,43.976c-7.275-17.065-27.008-25-44.072-17.724c-17.065,7.275-25,27.007-17.724,44.073
		c7.276,17.064,27.008,24.999,44.072,17.723S79.895,61.039,72.618,43.976z M71.779,45.3l-0.682,0.314l-0.501-1.089l-2.077,0.955
		l-0.492-1.068l2.077-0.956l-0.501-1.09l0.681-0.314L71.779,45.3z M69.819,41.224l-0.544,0.346l-1.055-1.66l-0.413,0.263l0.98,1.543
		l-0.524,0.333l-0.98-1.542l-0.503,0.32l1.086,1.708l-0.579,0.368l-1.717-2.7l2.563-1.629L69.819,41.224z M67.338,37.545
		l-2.376,1.889l-0.731-0.92l2.377-1.89L67.338,37.545z M63.447,33.759c0.428,0.048,0.856,0.289,1.288,0.724
		c0.337,0.34,0.548,0.662,0.631,0.966c0.084,0.304,0.059,0.615-0.075,0.936l-0.859-0.607c0.04-0.091,0.061-0.166,0.063-0.224
		c0.003-0.096-0.014-0.192-0.055-0.288c-0.04-0.094-0.101-0.184-0.184-0.268c-0.188-0.19-0.393-0.275-0.614-0.256
		c-0.167,0.013-0.345,0.115-0.538,0.305c-0.239,0.238-0.358,0.445-0.356,0.624c0.003,0.178,0.086,0.35,0.249,0.515
		c0.158,0.16,0.314,0.245,0.467,0.256c0.153,0.011,0.317-0.035,0.492-0.135l0.546,0.907c-0.213,0.114-0.427,0.172-0.641,0.175
		c-0.215,0.004-0.427-0.045-0.638-0.146c-0.211-0.101-0.437-0.272-0.677-0.514c-0.291-0.293-0.495-0.566-0.611-0.82
		s-0.156-0.533-0.119-0.837c0.037-0.305,0.189-0.589,0.456-0.854C62.628,33.864,63.02,33.711,63.447,33.759z M58.5,31.325
		c0.296-0.397,0.664-0.603,1.105-0.618c0.442-0.015,0.908,0.162,1.402,0.529c0.505,0.377,0.814,0.776,0.925,1.197
		c0.112,0.421,0.022,0.828-0.27,1.218c-0.212,0.285-0.446,0.474-0.701,0.566c-0.255,0.092-0.534,0.105-0.834,0.037
		c-0.301-0.067-0.62-0.227-0.957-0.478c-0.343-0.256-0.594-0.51-0.753-0.765c-0.16-0.254-0.239-0.528-0.237-0.821
		C58.181,31.898,58.288,31.609,58.5,31.325z M54.569,29.734l1.01,0.482c-0.048,0.139-0.058,0.259-0.029,0.36
		c0.046,0.165,0.168,0.299,0.362,0.406c0.146,0.078,0.274,0.111,0.382,0.099c0.109-0.012,0.184-0.056,0.223-0.128
		c0.037-0.068,0.033-0.149-0.012-0.245c-0.045-0.095-0.193-0.241-0.442-0.439c-0.407-0.327-0.671-0.61-0.79-0.849
		c-0.122-0.238-0.126-0.462-0.013-0.671c0.074-0.136,0.193-0.238,0.358-0.307c0.166-0.068,0.368-0.083,0.604-0.044
		c0.238,0.038,0.53,0.151,0.877,0.339c0.426,0.23,0.717,0.47,0.873,0.718c0.155,0.248,0.179,0.521,0.072,0.82l-1.001-0.483
		c0.04-0.134,0.033-0.251-0.02-0.35c-0.053-0.1-0.151-0.188-0.295-0.267c-0.119-0.064-0.22-0.092-0.303-0.084
		c-0.082,0.009-0.139,0.042-0.17,0.099c-0.023,0.042-0.02,0.095,0.012,0.157c0.029,0.061,0.126,0.155,0.292,0.284
		c0.408,0.321,0.688,0.574,0.84,0.76c0.152,0.185,0.24,0.36,0.265,0.525c0.025,0.166-0.002,0.321-0.081,0.467
		c-0.093,0.171-0.237,0.297-0.434,0.377c-0.196,0.08-0.421,0.1-0.672,0.06c-0.252-0.041-0.54-0.148-0.863-0.323
		c-0.567-0.307-0.912-0.606-1.036-0.899C54.456,30.307,54.452,30.018,54.569,29.734z M49.91,25.917l1.124,0.346l-0.676,2.192
		l1.749,0.539l-0.219,0.709l-2.871-0.884L49.91,25.917z M46.37,25.225l1.272,0.209l0.906,3.227l-1.211-0.199l-0.105-0.522
		l-1.308-0.215l-0.268,0.46l-1.184-0.195L46.37,25.225z M40.39,24.874l1.094,0.017l1.395,1.695l0.024-1.674l1.11,0.016l-0.045,3.036
		l-1.109-0.016l-1.387-1.686l-0.025,1.665l-1.101-0.016L40.39,24.874z M35.845,25.769c0.303-0.32,0.759-0.523,1.369-0.608
		c0.625-0.087,1.125-0.021,1.5,0.201c0.376,0.221,0.597,0.573,0.665,1.056c0.049,0.352,0.015,0.65-0.101,0.896
		s-0.306,0.449-0.567,0.613c-0.262,0.164-0.601,0.274-1.017,0.333c-0.423,0.059-0.781,0.054-1.073-0.015
		c-0.292-0.069-0.541-0.208-0.746-0.417c-0.205-0.209-0.332-0.489-0.381-0.841C35.424,26.495,35.542,26.09,35.845,25.769z
		 M34.138,25.789l0.765,2.939l-1.138,0.296L33,26.085L34.138,25.789z M32.009,26.334l0.265,0.702L31.15,27.46l0.807,2.138
		l-1.1,0.415l-0.806-2.139l-1.123,0.424l-0.265-0.703L32.009,26.334z M27.172,28.351l2.677,2.015l-1.083,0.576l-0.401-0.35
		l-1.17,0.623l0.066,0.528l-1.059,0.563l-0.17-3.35L27.172,28.351z M21.989,31.626l2.137,0.502l-0.996-1.347l0.893-0.66l1.805,2.442
		l-0.892,0.66l-2.126-0.5l0.99,1.339l-0.886,0.655l-1.805-2.441L21.989,31.626z M19.127,34.131c0.257-0.256,0.47-0.435,0.641-0.536
		c0.17-0.101,0.345-0.146,0.523-0.132c0.178,0.012,0.336,0.086,0.473,0.223c0.12,0.12,0.191,0.255,0.213,0.405
		c0.023,0.15,0.005,0.309-0.053,0.474c-0.037,0.106-0.106,0.231-0.208,0.377c0.126-0.072,0.224-0.118,0.294-0.136
		c0.049-0.012,0.132-0.018,0.248-0.018c0.116,0,0.2,0.006,0.251,0.019l1.026,0.212l-0.938,0.938l-1.104-0.21
		c-0.141-0.028-0.246-0.034-0.315-0.015c-0.093,0.027-0.177,0.078-0.253,0.154l-0.074,0.074l0.872,0.871l-0.832,0.832l-2.147-2.147
		L19.127,34.131z M16.929,36.457l0.515,0.388l-1.185,1.571l0.391,0.295l1.101-1.46l0.495,0.374l-1.101,1.46l0.476,0.358l1.219-1.616
		l0.547,0.413l-1.927,2.555l-2.424-1.829L16.929,36.457z M12.702,42.943l1.75-3.117l0.655,0.367L14.52,41.24l1.993,1.12
		l-0.575,1.024l-1.993-1.119l-0.587,1.046L12.702,42.943z M15.429,75.644c-0.261-0.166-0.506-0.425-0.738-0.775
		c-0.235-0.357-0.385-0.682-0.448-0.976c-0.064-0.293-0.045-0.578,0.055-0.853c0.101-0.275,0.3-0.51,0.596-0.706
		c0.414-0.273,0.83-0.341,1.25-0.205c0.42,0.135,0.8,0.46,1.139,0.973c0.348,0.527,0.502,1.007,0.464,1.441
		c-0.038,0.434-0.261,0.785-0.667,1.054c-0.297,0.196-0.581,0.294-0.852,0.294C15.955,75.892,15.689,75.81,15.429,75.644z
		 M19.647,78.084l-0.46,0.404l-0.975-1.11l-0.932,0.818l-0.775-0.883l2.281-2.003l1.918,2.184l-0.491,0.431l-1.142-1.3l-0.398,0.35
		L19.647,78.084z M23.743,83.984l-0.975-0.746l0.152-0.51l-1.053-0.805l-0.453,0.281l-0.952-0.729l2.974-1.548l1.025,0.784
		L23.743,83.984z M28.237,84.524c-0.139,0.063-0.295,0.089-0.47,0.078c-0.112-0.007-0.252-0.04-0.42-0.098
		c0.103,0.101,0.173,0.184,0.211,0.247c0.024,0.044,0.052,0.122,0.084,0.233c0.031,0.111,0.048,0.194,0.05,0.247l0.075,1.045
		l-1.158-0.647l-0.097-1.12c-0.011-0.143-0.035-0.246-0.072-0.308c-0.052-0.082-0.124-0.149-0.217-0.202l-0.091-0.051l-0.602,1.076
		l-1.025-0.574l1.482-2.649l1.708,0.955c0.316,0.178,0.546,0.334,0.689,0.471c0.144,0.137,0.233,0.292,0.27,0.467
		c0.037,0.175,0.008,0.347-0.086,0.516C28.486,84.357,28.375,84.462,28.237,84.524z M32.496,85.68
		c-0.064,0.167-0.184,0.285-0.36,0.353c-0.118,0.047-0.27,0.062-0.456,0.044c0.238,0.147,0.394,0.303,0.468,0.469
		c0.074,0.167,0.077,0.34,0.007,0.521c-0.056,0.148-0.15,0.265-0.281,0.349c-0.131,0.086-0.284,0.134-0.458,0.145
		c-0.109,0.009-0.26-0.013-0.453-0.064c-0.256-0.071-0.424-0.121-0.505-0.152l-1.891-0.726l1.089-2.834l2.048,0.787
		c0.342,0.131,0.578,0.299,0.709,0.504C32.545,85.28,32.572,85.482,32.496,85.68z M36.948,87.512
		c-0.077,0.347-0.213,0.615-0.407,0.804s-0.442,0.315-0.745,0.376c-0.302,0.063-0.659,0.048-1.069-0.042
		c-0.417-0.093-0.751-0.222-1.001-0.389s-0.435-0.383-0.554-0.651c-0.119-0.268-0.14-0.575-0.063-0.921
		c0.107-0.483,0.358-0.822,0.755-1.017c0.396-0.194,0.894-0.226,1.495-0.093c0.616,0.136,1.061,0.373,1.335,0.712
		C36.969,86.628,37.053,87.035,36.948,87.512z M40.176,89.33l-0.565-0.972c-0.071-0.125-0.137-0.207-0.196-0.248
		c-0.082-0.052-0.176-0.081-0.283-0.089l-0.103-0.008l-0.086,1.23l-1.173-0.083l0.213-3.029l1.951,0.137
		c0.363,0.025,0.637,0.07,0.825,0.131c0.188,0.063,0.335,0.166,0.444,0.309c0.108,0.143,0.155,0.31,0.141,0.503
		c-0.011,0.168-0.066,0.311-0.166,0.427c-0.099,0.116-0.229,0.206-0.392,0.271c-0.104,0.04-0.244,0.071-0.422,0.089
		c0.137,0.048,0.236,0.093,0.297,0.134c0.041,0.029,0.1,0.087,0.176,0.175c0.075,0.087,0.126,0.155,0.15,0.202l0.513,0.913
		L40.176,89.33z M42.345,89.357l-0.112-3.034l1.174-0.043l0.112,3.035L42.345,89.357z M47.933,88.375
		c-0.125,0.174-0.291,0.316-0.498,0.427c-0.206,0.108-0.479,0.188-0.815,0.237c-0.41,0.061-0.75,0.062-1.022,0.005
		c-0.274-0.057-0.521-0.19-0.745-0.401c-0.223-0.211-0.362-0.503-0.417-0.875c-0.073-0.496,0.038-0.902,0.329-1.217
		c0.292-0.315,0.742-0.518,1.348-0.606c0.474-0.07,0.858-0.047,1.152,0.065c0.294,0.113,0.53,0.318,0.708,0.616l-0.999,0.331
		c-0.05-0.085-0.098-0.147-0.143-0.184c-0.076-0.061-0.163-0.103-0.264-0.127c-0.1-0.024-0.208-0.028-0.325-0.011
		c-0.265,0.038-0.455,0.153-0.571,0.341c-0.088,0.142-0.112,0.346-0.074,0.614c0.049,0.334,0.146,0.553,0.291,0.657
		c0.146,0.104,0.333,0.139,0.562,0.105c0.223-0.033,0.384-0.107,0.483-0.223c0.099-0.117,0.16-0.276,0.183-0.477l1.054,0.099
		C48.137,87.994,48.058,88.2,47.933,88.375z M52.53,86.792c-0.021,0.173-0.085,0.338-0.194,0.495
		c-0.108,0.157-0.234,0.282-0.376,0.376c-0.199,0.131-0.45,0.242-0.756,0.333c-0.176,0.055-0.372,0.103-0.587,0.146
		c-0.214,0.042-0.401,0.057-0.559,0.041s-0.312-0.06-0.461-0.134c-0.149-0.072-0.262-0.161-0.34-0.263
		c-0.125-0.164-0.209-0.316-0.252-0.458l-0.524-1.73l1.117-0.338l0.535,1.77c0.049,0.158,0.14,0.265,0.277,0.32
		c0.137,0.056,0.303,0.055,0.498-0.004c0.194-0.06,0.333-0.149,0.415-0.271c0.083-0.121,0.101-0.263,0.052-0.421l-0.535-1.77
		l1.116-0.338l0.524,1.73C52.534,86.447,52.55,86.619,52.53,86.792z M54.015,86.971l-1.273-2.757l1.067-0.493l0.961,2.082
		l1.66-0.767l0.313,0.674L54.015,86.971z M58.163,84.878l-1.2-1.946l-1.021,0.63l-0.394-0.64l3.043-1.876l0.394,0.639l-1.021,0.63
		l1.2,1.945L58.163,84.878z M63.279,80.756c-0.039,0.188-0.105,0.352-0.2,0.494c-0.132,0.197-0.321,0.399-0.565,0.603
		c-0.142,0.118-0.303,0.239-0.484,0.362c-0.181,0.125-0.347,0.21-0.498,0.256c-0.152,0.047-0.312,0.065-0.477,0.057
		c-0.166-0.009-0.304-0.045-0.417-0.11c-0.179-0.102-0.316-0.21-0.411-0.323l-1.157-1.389l0.896-0.748l1.184,1.421
		c0.106,0.126,0.232,0.189,0.38,0.187c0.147-0.001,0.299-0.069,0.457-0.198c0.155-0.13,0.247-0.267,0.277-0.411
		c0.028-0.144-0.01-0.28-0.117-0.409l-1.183-1.419l0.896-0.748l1.158,1.389c0.114,0.138,0.195,0.29,0.245,0.458
		C63.312,80.393,63.316,80.57,63.279,80.756z M66.343,77.999l-1.113-0.148c-0.142-0.021-0.248-0.02-0.316,0.003
		c-0.091,0.033-0.173,0.089-0.244,0.168L64.6,78.099l0.919,0.822l-0.784,0.876l-2.264-2.024l1.304-1.458
		c0.242-0.271,0.445-0.461,0.61-0.572c0.165-0.11,0.336-0.164,0.515-0.162c0.179,0.003,0.34,0.068,0.484,0.197
		c0.126,0.112,0.204,0.243,0.236,0.392c0.03,0.15,0.022,0.307-0.027,0.476c-0.031,0.107-0.093,0.236-0.188,0.388
		c0.122-0.078,0.218-0.129,0.288-0.153c0.048-0.014,0.13-0.024,0.246-0.032c0.116-0.006,0.2-0.004,0.252,0.005l1.036,0.154
		L66.343,77.999z M67.719,76.316l-2.52-1.694l1.754-2.608l0.534,0.36l-1.098,1.632l0.406,0.273l1.021-1.517l0.514,0.347l-1.02,1.518
		l0.495,0.333l1.129-1.681l0.569,0.383L67.719,76.316z M52.641,82.759c-14.144,6.031-30.499-0.546-36.53-14.69
		C10.08,53.925,16.657,37.57,30.801,31.54c14.145-6.031,30.499,0.546,36.53,14.69C73.361,60.374,66.785,76.728,52.641,82.759z
		 M69.887,49.339l-0.336-1.125l1.219-0.365l1.267-1.921l0.373,1.247l-0.756,1.027l1.196,0.444l0.37,1.239l-2.113-0.91L69.887,49.339
		z"/>
	<path fill="#685334" d="M39.631,86.861l-0.518-0.036l-0.044,0.618l0.497,0.035c0.054,0.003,0.159-0.002,0.315-0.02
		c0.079-0.006,0.145-0.033,0.198-0.081c0.053-0.048,0.082-0.106,0.087-0.173c0.007-0.099-0.026-0.177-0.101-0.235
		C39.99,86.913,39.846,86.876,39.631,86.861z"/>
</g>
<path fill="#685334" d="M44.682,30.938c0.717,0.196,2.108,0.972,2.304,1.771c0.04,0.168,0.172,0.486-0.047,0.486
	c0,0.043,0,0.086,0,0.125c-0.211,0-0.751-0.094-0.751,0.125c-0.043,0-0.083,0-0.126,0c0,0.082,0,0.168,0,0.251
	c0.126,0,0.251,0,0.377,0c0-0.043,0-0.083,0-0.125c1.656-0.388,2.828,0.071,3.564,1.603c0.13,0.191,0.259,0.388,0.384,0.579
	c-0.02,0.235-0.039,0.471-0.062,0.702c0.157,0.042,0.376,0.039,0.376,0.25c0.043,0,0.086,0,0.125,0c0,0.165,0.04,0.125-0.125,0.125
	c-0.18,0.329-0.376,0.599-0.423,1.011c-0.059,0.479,0.176,0.831,0.208,1.25c0.023,0.357-0.137,0.584-0.203,0.89
	c-0.149,0.646-0.07,1.488-0.96,1.488c0-0.125,0-0.25,0-0.376c0.27-0.411,0.094-1.003-0.502-1.003
	c-0.36-0.042-1.629-0.145-1.629,0.377c0.67,0.521,0.537,1.434,0.615,2.257c0.011,0.165-0.036,0.125,0.137,0.125
	c0,0.042,0,0.085,0,0.125c0.043,0,0.087,0,0.125,0c0-0.083,0-0.165,0-0.25c0.388-0.482,0.827-0.502,1.505-0.502
	c0.388-0.168,0.756,0.126,1.128,0.126c0-0.043,0-0.083,0-0.126c1.454-0.729,0.501-0.971,0.501-2.006c0.043,0,0.087,0,0.125,0
	c0.141-0.098,1.63-0.803,1.63-0.376c0.236,0.706-0.235,1.148-0.305,1.764c-0.043,0.337,0.055,1.497,0.055,1.371
	c0.043,0,0.086,0,0.125,0c0.16-0.404,0.999-2.633,1.253-2.633c0,0.043,0,0.086,0,0.125c0.043,0.125,0.086,0.25,0.125,0.376
	c0.042,0,0.086,0,0.125,0c0.125-0.376,0.251-0.753,0.376-1.129c0.125,0,0.251,0,0.375,0c0.283,0.498,0.443,0.878,0.502,1.505
	c0.043,0,0.086,0,0.125,0c0,0.043,0,0.086,0,0.125c0.043,0,0.086,0,0.125,0c0.063-0.239,0.211-1.003,0.501-1.003
	c0-0.083,0-0.165,0-0.251c-0.211,0-0.752,0.091-0.752-0.125c-0.042,0-0.082,0-0.125,0c-0.042-0.446-0.251-0.854-0.251-1.253
	c-0.309,0.035-1.629,0.764-1.629,0.501c-0.043,0-0.083,0-0.126,0c0.043-0.251,0.085-0.501,0.126-0.752c-0.043,0-0.083,0-0.126,0
	c0,0.043,0,0.086,0,0.125c-0.043,0-0.083,0-0.125,0c-0.392,0.49-0.717,0.686-1.379,0.603c-0.712-0.094-1.5-0.725-1.227-1.543
	c0.157-0.279,0.314-0.557,0.466-0.838c0.055-0.533,0.11-1.063,0.165-1.596c0.125-0.293,1.097-0.963,1.097-0.513
	c0.042,0,0.086,0,0.125,0c-0.027,0.376-0.098,1.63,0.375,1.63c0,0.043,0,0.086,0,0.125c0.419-0.486,0.423-1.066,1.039-1.45
	c0.145-0.094,0.09,0.003,0.09-0.181c1.215,0.584,2.401,0.772,2.68,2.394c-0.008,0.411-0.015,0.827-0.027,1.238
	c0.032,0.259,0.188,0.506,0.482,0.506c0.329-0.815,1.282-0.952,1.959-0.442c0.157,0.117,0.361,0.442,0.549,0.442
	c-0.102,0.619-0.012,1.168,0.145,1.748c0.083,0.306,0.275,0.596,0.177,0.948c-0.419,1.485-3.162,0.764-3.437,2.599
	c-0.102,0.669,0.607,0.799,0.607,1.351c0.333-0.043,0.67-0.082,1.003-0.125c0.247-0.22,0.753-0.494,0.753-0.878
	c0.152,0.098,0.309,0.196,0.462,0.294c0.176,0.141,0.332,0.286,0.564,0.325c0.251,0.039,0.509,0,0.681-0.168
	c0.208-0.212,0.4-0.494,0.697-0.533c0.396-0.059,0.674,0.259,1.003,0.379c1.058,0.376,1.732,0.138,2.296,1.238
	c0.066,0.134,0.184,0.357,0.071,0.521c-0.157,0.216-0.396,0.074-0.635,0.074c0,0.043,0,0.086,0,0.125c-0.043,0-0.083,0-0.125,0
	c-0.036,0.572-0.067,1.144-0.103,1.712c0.196,0.783,1.529,0.627,1.776,1.367c0.392,1.175-2.508,3.647-3.625,1.528
	c-0.087-0.161-0.095-0.345-0.306-0.345c0,0.043,0,0.086,0,0.126c-0.149,0.208-0.286,0.752-0.626,0.752c0-0.043,0-0.082,0-0.125
	c-0.044,0-0.083,0-0.125,0c0-0.376,0-0.752,0-1.128c-0.177,0-0.251-0.082-0.251,0.125c-0.136,0.153-0.756,1.253-0.376,1.253
	c0,0.043,0,0.086,0,0.125c0.632,0,1.403-0.085,1.932,0.149c0.557,0.243,1.587,2.042,1.184,2.633
	c-0.388,0.557-0.968,0.549-1.465,0.882c-0.251,0.165-0.435,0.725-0.771,0.725c0,0.165-0.044,0.125,0.125,0.125
	c0.11,0.086,0.376,0.357,0.376,0.125c0.251-0.086,0.505-0.172,0.756-0.263c0.53-0.019,1.454,0.58,1.497,1.148
	c0.028,0.412-0.309,0.631-0.309,0.996c0.078,0.215,0.156,0.431,0.234,0.646c0.039,0.145,0.177,0.357-0.046,0.357
	c0,0.042,0,0.085,0,0.125c-0.729,0.02-3.084,0.498-1.932,1.543c0.16,0.146,0.426,0.337,0.677,0.337
	c0.056,0.271,0.141,1.379-0.251,1.379c0,0.172-0.066,0.251,0.125,0.251c0.091,0.191,0.772,1.254,0.877,1.254
	c-0.611,1.045-1.563,0.341-2.276-0.098c-0.67-0.416-1.705-0.439-1.645-1.529c0.003-0.149,0.105-0.254-0.091-0.254
	c-0.375-0.549-0.917-0.376-1.504-0.376c-0.044,0.208-0.082,0.419-0.125,0.626c0.556-0.039,1.571-0.164,1.329,0.698
	c-0.153,0.532-1.078,0.373-1.439,0.709c-0.184,0.165-0.227,0.478-0.286,0.717c-0.183,0.729-0.751,1.081-1.497,1.171
	c-0.207,0.023-0.615,0.094-0.615-0.161c-0.078-0.117-0.23-0.25,0-0.25c0.094-0.212,1.031-1.128,0.753-1.128c0-0.043,0-0.083,0-0.125
	c-0.083,0-0.166,0-0.251,0c0,0.043,0,0.085,0,0.125c-0.513,0.547-0.999,1.787-2.01,1.186c-0.525-0.309,0.118-1.688,0.63-1.688
	c0-0.211-0.094-0.751,0.125-0.751c0-0.043,0-0.083,0-0.125c0.251,0.083,0.502,0.168,0.752,0.251c0,0.164-0.042,0.125,0.125,0.125
	c0-0.043,0-0.082,0-0.125c0.102-0.165,0.513-1.003,0.251-1.003c-0.583-0.168-1.167-0.334-1.755-0.502
	c-0.044-0.207-0.177-0.752,0.125-0.752c0.349-0.235,1.004-0.286,1.004-0.877c0.043-0.313-0.721-1.379-1.004-1.379
	c-0.168,0-0.333,0-0.501,0c0.016-0.568,0-1.077,0-1.629c-0.583,0.113-1.167,0.231-1.755,0.344c-0.396,0.047-1.416-0.952-1.469,0.039
	c-0.047,0.756,1.672,1.65,2.272,1.833c0.741,0.224,1.575-0.305,1.893,0.682c0.047,0.153,0.132,0.235-0.063,0.235
	c-0.893,0.591-2.268,1.732-1.187,2.813c0.222,0.224,0.427,0.764,0.003,0.882c-0.567,0.149-0.971-0.498-1.042-0.945
	c-0.027-0.168,0.036-0.243-0.157-0.243c-0.277-0.149-0.646-0.25-1.003-0.25c0,0.082,0,0.168,0,0.25
	c0.063,0.392-0.011,0.857-0.419,0.972c-0.776,0.212-1.289-0.655-2.088-0.638c-1.003,0.016-2.418,1.077-3.256,1.555
	c-0.588,0.247-1.175,0.494-1.767,0.737c-0.373,0.235-0.694,0.56-0.921,0.933c-0.901,1.446-0.583,3.256-0.473,4.968
	c0.129,2.088,0.247,3.89,0.575,5.881c0.079,0.486,0.451,0.865,0.451,1.391c-0.451-0.043-0.842-0.251-1.253-0.251
	c0,0.083,0,0.169,0,0.251c0.427,0.204,0.768,0.533,1.184,0.779c0.725,0.432,1.767,0.475,2.703,0.475
	c0.549-0.247,1.618-0.125,2.257-0.125c0-0.043,0-0.082,0-0.125c0.087-0.09,0.125-0.126,0-0.126
	c-0.094-0.211-0.411-0.877-0.626-0.877c0-0.177-0.083-0.251,0.125-0.251c0-0.043,0-0.082,0-0.125c0.18,0,0.501-0.086,0.501,0.125
	c0.479,0.514,2.132,0.952,2.132,1.756c-0.373,0.368-0.541,1.19,0.161,1.339c0.445-0.027,0.897-0.055,1.344-0.086
	c0.164-0.003,0.125-0.043,0.125,0.125c0.042,0,0.086,0,0.125,0c-0.515,0.834-1.873,1.07-2.845,0.757
	c-0.353-0.118-0.647-0.505-1.043-0.505c-0.36,0.474-1.308,1.136-1.974,0.991c-0.279-0.063-0.479-0.341-0.792-0.353
	c-0.254,0.074-0.509,0.149-0.764,0.223c-0.309,0.032-1.469-0.458-1.544-0.685c-0.09-0.262,0.06-0.431,0.06-0.677
	c-0.083,0-0.165,0-0.251,0c0-0.044,0-0.083,0-0.126c-0.043,0-0.082,0-0.125,0c-0.811,1.382-2.151,0.028-3.13,0.098
	c-0.626,0.039-1.536,0.674-2.128,0.142c-0.109-0.099-0.132-0.063-0.132-0.239c-0.373-0.075-1.003-0.263-1.003-0.752
	c-0.126,0-0.251,0-0.377,0c-0.211,0.384-0.588,0.784-0.611,1.262c-0.016,0.271,0.626,1.12,0.36,1.12c0,0.043,0,0.087,0,0.125
	c-1.011-0.306-1.625-0.732-0.936-1.795c0.09-0.14,0.102-0.336,0.31-0.336c0-0.168,0.039-0.125-0.125-0.125
	c-0.255-0.352-0.991-0.575-0.941-1.116c0.043-0.494,1.529-0.263,1.944-0.263c0.172-0.09,0.627-0.031,0.627-0.25
	c0.043,0,0.085,0,0.125,0c0-0.082,0-0.165,0-0.251c-0.317-0.042-0.634-0.082-0.956-0.125c-0.152-0.055-0.869-0.627-0.548-0.627
	c0.458-0.321,2.257-0.623,2.257,0.376c0.082,0,0.168,0,0.25,0c0-0.043,0-0.082,0-0.125c1.493-1.497,1.089-7.911,1.019-10.285
	c-0.051-1.513,0.118-2.841-0.219-4.239c-0.208-0.843-0.604-1.607-1.023-2.347c-0.173-0.302-0.529-0.545-0.529-0.933
	c-0.083,0-0.165,0-0.251,0c0.013,0.212,0.228,1.003,0,1.003c0,0.043,0,0.086,0,0.125c-1.606,0-0.987,0.291-2.037,0.953
	c-0.521,0.243-1.042,0.489-1.567,0.733c-0.843,0.45-1.639,1.214-2.578,1.445c-0.686,0.164-1.458-0.208-2.104-0.293
	c-0.373,0.015-0.745,0.03-1.117,0.047c0.102-0.675,1.128-1.689,1.128-1.881c0.419,0.082,0.838,0.168,1.254,0.25
	c0-0.043,0-0.082,0-0.125c0.042,0,0.086,0,0.125,0c0-0.082,0-0.164,0-0.25c-0.435-0.24-0.709-0.251-1.254-0.251
	c0-0.083,0-0.165,0-0.251c0.042,0,0.086,0,0.125,0c1.54-1.543,1.869,1.003,2.131,1.003c0.106-0.266,0.262-0.626,0.626-0.626
	c0.125,0.152,0.377,0.29,0.377,0.501c0.082,0,0.168,0,0.251,0c-0.118-0.435-0.416-0.771-0.404-1.254
	c0.051-0.207,0.102-0.415,0.153-0.627c0.228,0.094,0.481,0.376,0.752,0.376c0-0.043,0-0.083,0-0.125c0.082,0,0.168,0,0.251,0
	c0-0.082,0-0.165,0-0.251c-0.662-0.262-1.187-1.002-1.986-0.881c-0.447,0.063-0.796,0.407-1.266,0.364
	c-0.404-0.04-0.596-0.486-1.011-0.486c-0.051,1.516-0.411,3.33-2.362,2.915c-0.176-0.039-0.396-0.075-0.396-0.282
	c-0.192,0.188-1.505,1.704-1.505,1.002c-0.042,0-0.082,0-0.125,0c0-0.168,0-0.333,0-0.501c0.631-0.478,2.132-1.074,2.132-2.006
	c-0.082,0-0.165,0-0.25,0c-0.588-0.168-1.155,0.322-1.696,0.02c-0.236-0.133-0.368-0.407-0.47-0.63
	c-0.549-1.164-0.62-1.521-2.096-1.521c0-0.082,0-0.165,0-0.251c0.043,0,0.085,0,0.125,0c0.231-0.227,0.462-0.454,0.693-0.681
	c0.369-0.412,0.56-1.129,0.56-1.701c-0.042,0-0.082,0-0.125,0c0-0.042,0-0.082,0-0.125c-0.584,0.168-1.168,0.337-1.755,0.501
	c0.067-0.74,0.447-1.316,1.329-1.088c0.317,0.082,0.541,0.34,0.924,0.348c0.117-0.023,0.239-0.047,0.356-0.07
	c0.145-0.439-0.756-0.886-1.108-0.893c-0.557-0.02-1.074,0.11-1.587-0.043c-0.258-0.078-2.013-1.383-2.209-1.594
	c-0.051-0.146-0.098-0.286-0.149-0.431c-0.121-0.819,0.314-1.309,0.314-1.994c-0.106-0.098-0.538-0.502-0.251-0.502
	c0.118-0.258,0.564-1.003,0.878-1.003c-0.38-0.474-1.442-1.214-0.804-1.962c0.318-0.376,0.804-0.278,0.804-0.921
	c0.125,0,0.25,0,0.376,0c0.373,0.533,0.76,1.128,1.505,1.128c0-0.043,0-0.083,0-0.125c0.082,0,0.168,0,0.25,0
	c0-0.043,0-0.083,0-0.125c-0.294,0-0.584,0-0.878,0c0-0.208,0-0.416,0-0.626c0.043,0,0.087,0,0.125,0c0-0.044,0-0.083,0-0.126
	c0.325,0.032,0.769,0.098,1.09,0.004c0.172-0.055,0.325-0.255,0.541-0.255c0,0.043,0,0.086,0,0.125
	c0.137,0.176,0.333,0.627,0.626,0.627c0,0.125,0,0.25,0,0.376c-0.083,0-0.164,0-0.251,0c-0.544,0.082-1.085,0.168-1.629,0.25
	c-0.043,0.168-0.083,0.337-0.126,0.501c0.596,0.498,0.627,0.847,0.627,1.63c-0.082,0-0.165,0-0.25,0
	c-1.168-1.607-1.505,2.472-1.505,2.382c0.043,0,0.086,0,0.125,0c0.102-0.168,0.376-0.404,0.376-0.627c0.043,0,0.086,0,0.125,0
	c0.33,0.055,0.576-0.125,0.878-0.125c0-0.043,0-0.082,0-0.125c-0.133-0.059-0.804-0.501-0.502-0.501c0-0.043,0-0.083,0-0.126
	c0.321-0.07,0.647-0.141,0.968-0.211c0.168-0.074,0.329-0.29,0.537-0.29c-0.196-0.945,0.364-1.204,1.101-1.434
	c0.254-0.043,0.514-0.086,0.768-0.133c0.388,0.176,0.776,0.356,1.16,0.533c0.474,0.031,0.65-0.47,0.983-0.47
	c-0.102-0.204-0.25-0.38-0.25-0.627c-0.169,0-0.126,0.039-0.126-0.125c0.587-0.361,0.979-2.006,1.254-2.006c0-0.125,0-0.251,0-0.376
	c-0.176,0-0.251-0.083-0.251,0.125c-0.255,0.212-0.505,0.427-0.76,0.639c-0.513,0.22-1.246-0.36-1.246-0.889
	c0.114-0.118,0.517-0.501,0.251-0.501c-0.094-0.184-0.376-0.412-0.376-0.627c-0.083,0-0.164,0-0.25,0
	c-0.047,0.349-0.063,0.639-0.244,0.92c-0.258,0.392-0.885,0.686-0.885,1.211c0.196,0,0.627-0.098,0.627,0.125
	c0.109,0.137,0.251,0.302,0.251,0.502c-0.568-0.091-0.882-0.286-1.313-0.596c-0.556-0.399-0.76-1.066-1.206-1.528
	c-0.474-0.399-0.945-0.799-1.418-1.199c-0.283-0.211-0.564-0.423-0.851-0.635c-0.035-0.102-0.066-0.204-0.102-0.305
	c0.541-0.458,0.979-1.129,1.756-1.129c-0.106-0.466-0.125-0.881-0.125-1.379c0.56-0.294,1.951-1.478,2.088-2.143
	c0.027-0.141-0.031-0.239,0.168-0.239c0-0.043,0-0.083,0-0.125c0.298,0.015,0.815,0.129,1.05-0.086
	c0.188-0.181,0.066-0.917,0.329-0.917c0-0.043,0-0.082,0-0.125c0.365,0.196,0.811,1.003,1.254,1.003c0,0.043,0,0.086,0,0.125
	c0.043,0,0.086,0,0.126,0c0.042-0.458,0.085-0.917,0.125-1.379c0.611-0.063,0.917,0.376,1.505,0.376
	c0-0.168-0.043-0.125,0.125-0.125c0-0.168,0.04-0.125-0.125-0.125c0.02-0.541,0.043-1.082,0.063-1.622
	c0.105-0.293,0.211-0.587,0.313-0.885c0.172,0,0.251-0.066,0.251,0.125c0.482,0.557,0.317,2.347,0.008,2.942
	c-0.152,0.286-0.635,0.584-0.635,0.944c0.043,0,0.086,0,0.125,0c0.628,0.627,1.763,1.795,1.235,2.801
	c-0.439,0.827-0.858,0.784-0.858,1.963c0.043,0,0.086,0,0.125,0c0.423-0.455,1.521-1.756,2.131-1.756
	c0.141,0.212,1.379,1.505,1.379,1.505c0.216-0.286,0.25-0.991,0.25-1.379c-0.376,0-0.752,0-1.129,0c0-0.083,0-0.165,0-0.251
	c0.044,0,0.087,0,0.125,0c0.302-0.745,1.129-1.383,1.129-2.257c-0.376,0.169-0.752,0.337-1.129,0.501
	c0.075,0.161,0.341,0.501,0.125,0.501c-0.254,0.333-0.564,0.502-1.003,0.502c-0.089-0.223-0.619-2.006-0.25-2.006
	c0,0.043,0,0.086,0,0.125c0.541,0.07,1.536-0.188,1.301-0.929c-0.215-0.669-1.246-0.576-1.802-0.576c0-0.043,0-0.082,0-0.125
	c-0.255-0.509-0.275-1.536,0.188-1.936c0.266-0.195,0.532-0.392,0.795-0.587c0.141-0.196,0.25-0.737,0.521-0.737
	c0,0.043,0,0.086,0,0.125c0.044,0,0.087,0,0.125,0c0.118,0.36,0.185,1.073,0.726,1.026c0.02-0.004,0.043-0.007,0.063-0.016
	c0,0,0.843-1.265,0.843-0.76c0.391-0.396,0.529-0.626,1.127-0.626c0,0.164-0.043,0.125,0.126,0.125c0,0.125,0,0.25,0,0.376
	c-0.149-0.075-0.317-0.251-0.501-0.251c0,0.083,0,0.169,0,0.251c-0.083,0.161-0.228,0.626,0,0.626c0,0.043,0,0.086,0,0.125
	c0.254,0.023,1.002,0.067,1.002,0.376c0.043,0,0.086,0,0.125,0c0-0.168-0.043-0.125,0.125-0.125c0-0.532-0.043-1.128,0.132-1.575
	c0.071-0.184,0.745-0.799,0.745-0.431c0.239,0.349,0.438,1.128,1.003,1.128c0.223-0.353,0.635-1.002,1.128-1.002
	c-0.043,0.25-0.083,0.501-0.125,0.752c0.043,0,0.086,0,0.125,0c0.165,0.083,0.627,0.33,0.627,0.125
	c0.188-0.235,0.251-0.549,0.251-0.877c0.262-0.063,1.002-0.302,1.002-0.627c0.924,0.255,0.917,0.858,2.01,0.389
	c0.141-0.063,0.373-0.071,0.373-0.263c0.571,0.156,2.304,1.148,2.331-0.13c-0.109-0.415-0.216-0.83-0.325-1.25
	C44.432,31.188,44.557,31.063,44.682,30.938z"/>
<g>
	<path fill="#685334" d="M89.501,121.313c0.668,0,1.292,0.168,1.871,0.504c0.579,0.336,1.036,0.793,1.373,1.37
		c0.336,0.577,0.503,1.2,0.503,1.868c0,0.672-0.167,1.295-0.501,1.872c-0.334,0.575-0.791,1.031-1.37,1.365
		c-0.58,0.334-1.205,0.501-1.876,0.501c-0.675,0-1.302-0.167-1.881-0.499c-0.579-0.333-1.035-0.787-1.37-1.365
		c-0.334-0.578-0.501-1.202-0.501-1.874c0-0.672,0.168-1.296,0.504-1.874c0.336-0.577,0.793-1.033,1.372-1.368
		C88.204,121.479,88.83,121.313,89.501,121.313z M89.501,121.934c-0.86,0-1.596,0.305-2.206,0.916
		c-0.611,0.61-0.917,1.346-0.917,2.206c0,0.864,0.305,1.599,0.914,2.206c0.609,0.608,1.345,0.911,2.208,0.911
		c0.86,0,1.595-0.304,2.204-0.913c0.608-0.609,0.913-1.344,0.913-2.204c0-0.86-0.306-1.596-0.916-2.206
		C91.092,122.238,90.358,121.934,89.501,121.934z M88.653,127.064h-0.65v-4.024h1.394c0.493,0,0.842,0.039,1.045,0.117
		c0.203,0.078,0.366,0.207,0.489,0.389c0.122,0.183,0.183,0.376,0.183,0.581c0,0.308-0.107,0.567-0.322,0.779
		c-0.215,0.212-0.492,0.331-0.829,0.358c0.152,0.062,0.295,0.166,0.429,0.31c0.134,0.144,0.304,0.379,0.509,0.707l0.486,0.783
		h-0.795l-0.351-0.629c-0.255-0.454-0.457-0.748-0.606-0.881c-0.149-0.134-0.347-0.202-0.595-0.202h-0.387V127.064z M88.653,123.586
		v1.211h0.793c0.338,0,0.584-0.048,0.74-0.146c0.156-0.098,0.233-0.252,0.233-0.464c0-0.222-0.075-0.377-0.226-0.466
		c-0.15-0.089-0.416-0.134-0.796-0.134H88.653z"/>
</g>
</svg>
